<svg xmlns="http://www.w3.org/2000/svg" xmlns:xlink="http://www.w3.org/1999/xlink" width="343" height="92" viewBox="0 0 343 92"><g id="Group-copy"><path id="thecopy" fill="#000000" fill-rule="evenodd" stroke="none" d="M 108.237999 40.847 L 108.237999 27.927002 L 116.383003 27.927002 L 116.383003 19.343002 L 108.237999 19.343002 L 108.237999 12.693001 L 100.737999 12.693001 L 97.778999 19.666 L 92.679001 23.265999 L 92.679001 27.923996 L 96.699997 27.923996 L 96.699997 41.608002 C 96.699997 45.514668 97.549667 48.410332 99.249001 50.294998 C 100.948334 52.179668 103.721664 53.122002 107.569 53.122002 C 109.214676 53.142426 110.858337 53.000065 112.475998 52.696999 C 113.990936 52.376167 115.46875 51.899982 116.886002 51.276001 L 116.886002 42.925999 C 115.116531 43.61274 113.244774 43.999058 111.348 44.069 C 109.278 44.069 108.242996 42.994667 108.242996 40.846001 L 108.242996 40.846001 Z M 155.084 52.535999 L 155.084 30.944 C 155.084 27.096672 154.053665 24.103668 151.992996 21.964996 C 149.932327 19.826332 147.046661 18.757004 143.335999 18.757004 C 141.531647 18.718239 139.740997 19.078484 138.091995 19.811996 C 136.469162 20.622017 135.114883 21.883591 134.192001 23.445 L 133.664993 23.445 C 133.97699 19.695 134.132996 16.355331 134.132996 13.426003 L 134.132996 6.949997 L 122.681 6.949997 L 122.681 52.535999 L 134.136002 52.535999 L 134.136002 37.945999 C 134.136002 34.293999 134.580338 31.681667 135.468994 30.109001 C 136.275299 28.584045 137.892181 27.664459 139.615005 27.750999 C 142.252335 27.750999 143.570663 29.977669 143.570007 34.431 L 143.570007 52.535999 L 155.084 52.535999 Z M 185.757996 52.595001 C 187.696045 52.236435 189.571228 51.596325 191.324005 50.695 L 191.324005 42.458 C 189.567184 43.300121 187.725845 43.953125 185.830994 44.405998 C 184.007111 44.800831 182.145081 44.992332 180.279007 44.977001 C 178.404724 45.083076 176.553101 44.524647 175.050003 43.400002 C 173.757004 42.31929 173.010742 40.720161 173.013 39.035 L 193.492004 39.035 L 193.492004 33.935001 C 193.492004 29.033005 192.129669 25.278 189.404999 22.669998 C 186.680328 20.061996 182.817993 18.758331 177.817993 18.759003 C 172.563995 18.759003 168.520996 20.259003 165.688995 23.259003 C 162.856995 26.259003 161.440994 30.560669 161.440994 36.164001 C 161.440994 41.593998 162.96933 45.778664 166.026001 48.717999 C 169.082657 51.657333 173.373993 53.125332 178.899994 53.122002 C 181.197144 53.151127 183.492279 52.974758 185.757996 52.595001 Z M 181.729004 27.986 C 182.639252 29.054535 183.12442 30.420692 183.091995 31.824001 L 173.248001 31.824001 C 173.266037 30.338226 173.836395 28.912346 174.848007 27.823997 C 175.764862 26.971313 176.980438 26.513672 178.231995 26.550003 C 179.551788 26.491837 180.830475 27.016541 181.729004 27.985001 Z"></path><path id="wpcopy" fill="#000000" fill-rule="evenodd" stroke="none" d="M 272.27301 52.715 L 286.372986 1.330002 L 269.27301 1.330002 L 264.738007 21.058998 C 264.111786 23.788918 263.642365 26.552437 263.332001 29.335999 C 262.90802 32.768002 262.605682 35.632999 262.424988 37.931 L 262.152008 37.931 C 261.538391 32.690056 260.660614 27.483429 259.522003 22.331001 L 255.167999 1.331001 L 235.582001 1.331001 L 230.820007 22.056 C 229.248001 29.856003 228.416672 35.147335 228.326004 37.93 L 228.054001 37.93 C 227.682526 32.258755 226.909592 26.620964 225.740997 21.058998 L 221.567993 1.330002 L 204.106995 1.330002 L 218.121002 52.715 L 236.761993 52.715 L 241.977005 30.900002 C 242.490997 28.693329 243.488998 23.356667 244.970993 14.889999 L 245.242996 14.889999 L 246.149994 20.831001 L 247.509995 28.223999 L 253.31601 52.715 L 272.27301 52.715 Z M 338.194 46.479 C 341.564667 41.716999 343.250336 35.193665 343.251007 26.908997 C 343.251007 18.684998 341.633331 12.214668 338.39801 7.498001 C 335.489868 2.954208 330.41153 0.26873 325.019012 0.422997 C 319.466553 0.285217 314.262543 3.12072 311.368011 7.861 L 310.550995 7.861 L 308.057007 1.330002 L 293.63501 1.330002 L 293.63501 75.029999 L 311.368011 75.029999 L 311.368011 54.393002 C 311.212128 52.143024 310.939423 49.902672 310.550995 47.681 L 311.368011 47.681 C 313.045013 49.658779 315.134583 51.245567 317.48999 52.330002 C 319.708801 53.222424 322.083771 53.66172 324.475006 53.622002 C 329.973755 53.765911 335.15863 51.066334 338.194 46.479 Z M 323.658997 17.225998 C 324.685669 19.146667 325.199677 22.313332 325.200989 26.725998 C 325.200989 31.231335 324.686981 34.459 323.658997 36.409 C 322.747955 38.288403 320.800873 39.440353 318.714996 39.334 C 316.448853 39.480247 314.292755 38.340744 313.136993 36.386002 C 311.957001 34.420666 311.36734 31.230667 311.368011 26.816002 L 311.368011 25.412003 C 311.458008 21.754005 312.024658 18.995003 313.067993 17.135002 C 314.111328 15.275002 315.932983 14.345337 318.53299 14.346001 C 320.662781 14.199295 322.676514 15.330688 323.658997 17.225998 Z"></path><path id="weeklycopy" fill="#000000" fill-rule="evenodd" stroke="none" d="M 127.955994 65.836998 L 122.594002 65.836998 L 119.324997 79.863998 C 119.11367 80.708 118.880333 81.812332 118.625 83.177002 C 118.369667 84.541664 118.181 85.682663 118.058998 86.599998 C 117.930328 85.650665 117.742996 84.514 117.497002 83.190002 C 117.250999 81.866005 117.045998 80.881668 116.882004 80.237 L 113.137001 65.836998 L 107.987 65.836998 L 104.242996 80.237 C 104.020332 81.010338 103.782997 82.097336 103.530998 83.498001 C 103.278999 84.898666 103.117996 85.931999 103.047997 86.598 C 102.790001 84.699333 102.374001 82.455002 101.800003 79.864998 L 98.512001 65.837997 L 93.151001 65.837997 L 99.708 91.538002 L 105.900002 91.538002 L 109.362999 78.072998 C 109.514999 77.473 109.732002 76.473 110.014 75.072998 C 110.295998 73.672997 110.471664 72.656334 110.541 72.023003 C 110.587669 72.539001 110.766335 73.549667 111.077003 75.055 C 111.387665 76.560333 111.60733 77.553673 111.736 78.035004 L 115.217003 91.535004 L 121.417 91.535004 Z M 154.990997 87.037003 L 145.639008 87.037003 L 145.639008 80.408997 L 154.339005 80.408997 L 154.339005 75.944 L 145.639008 75.944 L 145.639008 70.300003 L 154.990997 70.300003 L 154.990997 65.836998 L 140.190994 65.836998 L 140.190994 91.537003 L 154.990997 91.537003 L 154.990997 87.037003 Z M 184.153 87.037003 L 174.800003 87.037003 L 174.800003 80.408997 L 183.5 80.408997 L 183.5 75.944 L 174.800003 75.944 L 174.800003 70.300003 L 184.151993 70.300003 L 184.151993 65.836998 L 169.352005 65.836998 L 169.352005 91.537003 L 184.151993 91.537003 L 184.151993 87.037003 Z M 210.153 77.210999 L 219.117996 65.837997 L 213.070999 65.837997 L 206.110001 74.573997 L 203.964005 77.599998 L 203.964005 65.836998 L 198.514008 65.836998 L 198.514008 91.537003 L 203.964005 91.537003 L 203.964005 82.360001 L 206.264008 80.708 L 213 91.536003 L 219.186996 91.536003 Z M 247.296005 91.537003 L 247.296005 87.037003 L 236.869995 87.037003 L 236.869995 65.836998 L 231.421005 65.836998 L 231.421005 91.537003 L 247.294006 91.537003 Z M 263.432007 65.836998 L 257.526001 65.836998 L 266.049988 81.709999 L 266.049988 91.536003 L 271.463989 91.536003 L 271.463989 81.536003 L 279.989014 65.835999 L 274.118011 65.835999 L 268.756989 76.417999 Z"></path><path id="Rectangle1copy" fill="#000000" stroke="none" d="M 293 1 L 312 1 L 312 92 L 293 92 Z"></path><path id="Path" fill="#744de5" stroke="none" d="M 0 72 L 74 72 L 74 92 L 0 92 Z"></path><path id="Rectangle3copy" fill="#744de5" stroke="none" d="M 0 39 L 57 39 L 57 59 L 0 59 Z"></path><path id="Rectangle3copy2" fill="#744de5" stroke="none" d="M 0 6 L 37 6 L 37 26 L 0 26 Z"></path></g></svg>