<svg xmlns="http://www.w3.org/2000/svg" xmlns:xlink="http://www.w3.org/1999/xlink" width="665.946" height="363.033" viewBox="0 0 665.946 363.033"><defs><clipPath id="clip-path"><rect id="Rectangle_126" data-name="Rectangle 126" width="65.296" height="16.464" fill="#fff"></rect></clipPath><linearGradient id="linear-gradient" x1="1" y1="0.431" x2="0" y2="0.427" gradientUnits="objectBoundingBox"><stop offset="0" stop-color="#55b330"></stop><stop offset="1" stop-color="#007b40"></stop></linearGradient><linearGradient id="linear-gradient-2" x1="1" y1="0.5" x2="0" y2="0.5" gradientUnits="objectBoundingBox"><stop offset="0" stop-color="#006dba"></stop><stop offset="1" stop-color="#1d2970"></stop></linearGradient><linearGradient id="linear-gradient-3" x1="1" y1="0.439" x2="0" y2="0.431" gradientUnits="objectBoundingBox"><stop offset="0" stop-color="#e30138"></stop><stop offset="1" stop-color="#6e2b2f"></stop></linearGradient><linearGradient id="linear-gradient-4" x1="0.202" y1="0.546" x2="0.934" y2="-0.13" gradientUnits="objectBoundingBox"><stop offset="0" stop-color="#005ab9"></stop><stop offset="1" stop-color="#1e3764"></stop></linearGradient><linearGradient id="linear-gradient-5" x1="0.061" y1="1.087" x2="0.837" y2="0.427" gradientUnits="objectBoundingBox"><stop offset="0" stop-color="#fba900"></stop><stop offset="1" stop-color="#ffd800"></stop></linearGradient><linearGradient id="linear-gradient-6" x1="0.147" y1="0.146" x2="0.854" y2="0.854" gradientUnits="objectBoundingBox"><stop offset="0" stop-color="#e52f08"></stop><stop offset="1" stop-color="#e94f96"></stop></linearGradient></defs><g id="Group_697" data-name="Group 697" transform="translate(-934.862 -7091.371)"><g id="Group_609" data-name="Group 609" transform="translate(-105 -364.998)"><rect id="Rectangle_184" data-name="Rectangle 184" width="69.219" height="38.813" rx="3.5" transform="translate(1619.7 7571.943)" fill="#fff"></rect><g id="Group_602" data-name="Group 602" transform="translate(-59.216 187.01)"><g id="Group_573" data-name="Group 573" transform="translate(1691.207 7391.737)"><g id="Group_466" data-name="Group 466" transform="translate(0 0)"><g id="mybank-logo-color" transform="translate(0 0)"><path id="Path_8384" data-name="Path 8384" d="M322.873,152.4a3.276,3.276,0,0,0-2.527.976.787.787,0,0,0,.322,1.359c.732.078.732-.54,1.856-.81a.75.75,0,0,1,1.037.68c-4.226-.1-4.025,3.441-2.588,4.191a2.7,2.7,0,0,0,2.666-.192s.052.488.732.488a.762.762,0,0,0,.784-.775v-3.45A2.265,2.265,0,0,0,322.873,152.4Zm-.331,4.992s-1.106.227-1.1-.566,2.013-.741,2.222-.68c0,0,.061.9-1.124,1.246Z" transform="translate(-292.132 -142.196)" fill="#334b66"></path><path id="Path_8385" data-name="Path 8385" d="M460.353,138.527l-1.725-2.6,1.263-1.194a.778.778,0,0,0,.1-1.08.816.816,0,0,0-1.168-.009l-1.594,1.481v-2.962a.767.767,0,1,0-1.533,0v6.979a.767.767,0,0,0,1.533,0v-1.865l.288-.288,1.56,2.44a.857.857,0,0,0,1.255.3C460.91,139.337,460.353,138.527,460.353,138.527Z" transform="translate(-415.969 -123.028)" fill="#334b66"></path><path id="Path_8386" data-name="Path 8386" d="M393.053,153.411c0-2.518-2.1-2.875-3.529-2.074v.009a.784.784,0,0,0-1.525.261v5.254a.784.784,0,0,0,1.568,0l-.009-3.546a3.021,3.021,0,0,1,.5-.444c.741-.523,1.438-.34,1.438.549l.017,3.459a.776.776,0,0,0,1.551,0Z" transform="translate(-354.167 -140.752)" fill="#334b66"></path><path id="Path_8387" data-name="Path 8387" d="M166.408,163.218a1.393,1.393,0,0,0,.209-.514l-1.777-4.644s-.322-.9.392-1.167a.814.814,0,0,1,1.08.584l1.124,2.988,1.028-2.98s.3-.924,1.115-.6c.68.27.331,1.185.331,1.185s-1.054,3.11-1.934,5.358c-.523,1.35-.976,1.481-1.49,1.6-.688.166-1.986.087-1.986-.767,0-.671.688-.714,1-.706A.968.968,0,0,0,166.408,163.218Z" transform="translate(-150.139 -146.229)" fill="#2abaea"></path><path id="Path_8388" data-name="Path 8388" d="M84.055,132.118,82.435,136.6l-1.769-4.452s-.261-.845-1-.845a.766.766,0,0,0-.845.845c-.017.166,0,6.961,0,6.961a.713.713,0,0,0,.775.714.7.7,0,0,0,.767-.723v-3.59l1.307,3.59s.192.706.793.7.775-.7.775-.7l1.089-3.581V139.1a.732.732,0,0,0,.793.723.723.723,0,0,0,.767-.723v-6.953a.818.818,0,0,0-.828-.845,1.139,1.139,0,0,0-1,.819v.026" transform="translate(-71.916 -122.936)" fill="#2abaea"></path><path id="Path_8389" data-name="Path 8389" d="M44.309,54.932H20.541l.009.009a10.846,10.846,0,1,1-1.22-15.282,10.444,10.444,0,0,1,1.237,1.246h2.178a12.588,12.588,0,1,0-1.228,15.569l21.755-.017Z" transform="translate(0.328 -35.303)" fill="#2abaea"></path><path id="Path_8390" data-name="Path 8390" d="M245.006,135.88a1.981,1.981,0,0,0,.523-1.612,2.248,2.248,0,0,0-2.509-2.274c-.706-.017-1.133-.009-2.431,0a1.013,1.013,0,0,0-1.089,1.011v7.44h3.694c1.978,0,2.71-1.089,2.71-2.614A2.037,2.037,0,0,0,245.006,135.88Zm-3.912-2.309h2.039a.783.783,0,0,1,.836.836.744.744,0,0,1-.836.836h-2.039Zm2.187,5.358h-2.187v-2.091h2.187a.985.985,0,0,1,1.045,1.046A.944.944,0,0,1,243.281,138.93Z" transform="translate(-218.605 -123.561)" fill="#334b66"></path></g></g></g></g><path id="Path_8490" data-name="Path 8490" d="M0,5.094C0,2.281,2.779,0,6.207,0H68.281c3.428,0,6.207,2.281,6.207,5.094V35.656c0,2.813-2.779,5.094-6.207,5.094H6.207C2.779,40.75,0,38.47,0,35.656Z" transform="translate(1044.244 7717.744)" fill="#fff"></path><path id="Path_8489" data-name="Path 8489" d="M0,4.707C0,2.108,2.779,0,6.207,0H68.281c3.428,0,6.207,2.108,6.207,4.707V32.951c0,2.6-2.779,4.707-6.207,4.707H6.207C2.779,37.658,0,35.551,0,32.951Z" transform="translate(1094.244 7781.744)" fill="#fff"></path><g id="Group_608" data-name="Group 608" transform="translate(0 -60)"><g id="Group_548" data-name="Group 548" transform="translate(-58.584 2714.442)"><path id="Path_8481" data-name="Path 8481" d="M0,10.119C0,4.53,5.627,0,12.567,0H138.24c6.941,0,12.567,4.53,12.567,10.119V70.832c0,5.589-5.626,10.119-12.567,10.119H12.567C5.627,80.951,0,76.421,0,70.832Z" transform="translate(1233.491 4956.029)" fill="#fff"></path><g id="Group_454" data-name="Group 454" transform="translate(1227.789 4942.433)"><g id="Stripe_wordmark_-_white" data-name="Stripe wordmark - white" transform="translate(23.359 30.043)"><path id="Path_8306" data-name="Path 8306" d="M363.536,82.293c0-8.213-3.978-14.693-11.581-14.693-7.635,0-12.255,6.48-12.255,14.629,0,9.656,5.454,14.533,13.282,14.533a17.889,17.889,0,0,0,8.887-2.085V88.26a17.036,17.036,0,0,1-7.86,1.764c-3.112,0-5.871-1.091-6.224-4.876h15.688C363.472,84.731,363.536,83.063,363.536,82.293Zm-15.848-3.048c0-3.625,2.214-5.133,4.235-5.133,1.957,0,4.042,1.508,4.042,5.133Z" transform="translate(-248.044 -57.462)" fill="#635bff" fill-rule="evenodd"></path><path id="Path_8307" data-name="Path 8307" d="M271.963,67.6a9.064,9.064,0,0,0-6.288,2.5l-.417-1.989H258.2V105.52l8.02-1.7.032-9.079a9.035,9.035,0,0,0,5.678,2.021c5.743,0,10.972-4.62,10.972-14.79C282.87,72.669,277.577,67.6,271.963,67.6Zm-1.925,22.1a4.8,4.8,0,0,1-3.786-1.508l-.032-11.9a4.775,4.775,0,0,1,3.818-1.572c2.919,0,4.941,3.272,4.941,7.475C274.979,86.5,272.99,89.7,270.038,89.7Z" transform="translate(-192.69 -57.462)" fill="#635bff" fill-rule="evenodd"></path><path id="Path_8308" data-name="Path 8308" d="M223.8,44.245l8.052-1.732V36L223.8,37.7Z" transform="translate(-169.326 -36)" fill="#635bff" fill-rule="evenodd"></path><rect id="Rectangle_119" data-name="Rectangle 119" width="8.052" height="28.071" transform="translate(54.474 10.683)" fill="#635bff"></rect><path id="Path_8309" data-name="Path 8309" d="M181.143,70.972l-.513-2.374H173.7V96.669h8.02V77.645c1.893-2.47,5.1-2.021,6.1-1.668V68.6C186.789,68.213,183.036,67.507,181.143,70.972Z" transform="translate(-135.299 -57.915)" fill="#635bff" fill-rule="evenodd"></path><path id="Path_8310" data-name="Path 8310" d="M130.26,47.6l-7.828,1.668-.032,25.7a8.061,8.061,0,0,0,8.309,8.245,12.391,12.391,0,0,0,5.614-1.059V75.639c-1.027.417-6.1,1.893-6.1-2.855V61.395h6.1V54.562h-6.1Z" transform="translate(-100.456 -43.879)" fill="#635bff" fill-rule="evenodd"></path><path id="Path_8311" data-name="Path 8311" d="M62.117,76.294c0-1.251,1.027-1.732,2.727-1.732A17.894,17.894,0,0,1,72.8,76.615V69.076A21.156,21.156,0,0,0,64.843,67.6C58.331,67.6,54,71,54,76.679c0,8.854,12.191,7.443,12.191,11.261,0,1.476-1.283,1.957-3.08,1.957a19.969,19.969,0,0,1-8.758-2.566v7.635a22.239,22.239,0,0,0,8.758,1.829c6.673,0,11.261-3.3,11.261-9.047C74.34,78.187,62.117,79.887,62.117,76.294Z" transform="translate(-54 -57.462)" fill="#635bff" fill-rule="evenodd"></path></g></g><g id="Group_632" data-name="Group 632" transform="translate(11.073 -4)"><path id="Path_8482" data-name="Path 8482" d="M0,9.375C0,4.2,5.848,0,13.062,0H143.683c7.214,0,13.062,4.2,13.062,9.375v56.25C156.745,70.8,150.9,75,143.683,75H13.062C5.848,75,0,70.8,0,65.625Z" transform="translate(1502.278 4969.295)" fill="#fff"></path><g id="paypal" transform="translate(1523.809 4991.641)"><path id="Path_8277" data-name="Path 8277" d="M21.243,6.971A9.657,9.657,0,0,0,15.665,5.5H6.784A1.05,1.05,0,0,0,5.619,6.554L2.011,29.2a.742.742,0,0,0,.166.611.681.681,0,0,0,.555.277H6.951a1.078,1.078,0,0,0,1.221-1.054l1-6.105a1.078,1.078,0,0,1,.389-.722,1.711,1.711,0,0,1,.833-.361,5.8,5.8,0,0,1,.944-.083q.444,0,1.055.056t.777.055a10.185,10.185,0,0,0,7.493-2.692,10.031,10.031,0,0,0,2.72-7.465A5.351,5.351,0,0,0,21.243,6.97Zm-4.579,6.8a3.15,3.15,0,0,1-1.443,2.553,7.312,7.312,0,0,1-3.33.611l-1.832.055L11,11.05a.664.664,0,0,1,.721-.61H12.78A6.193,6.193,0,0,1,16,11.078Q17,11.717,16.665,13.77Z" transform="translate(-2 -5.5)" fill="#0041b8"></path><path id="Path_8278" data-name="Path 8278" d="M28.871,5.5H24.764a.664.664,0,0,0-.721.611L20.435,29.2l-.056.111a.782.782,0,0,0,.222.527.711.711,0,0,0,.555.25H24.82a1.051,1.051,0,0,0,1.165-1.054l3.608-22.7V6.278q0-.777-.722-.777Z" transform="translate(84.091 -5.5)" fill="#009cde"></path><path id="Path_8279" data-name="Path 8279" d="M29.975,7.713a.786.786,0,0,0-.221-.527.66.66,0,0,0-.5-.25H24.98a1.176,1.176,0,0,0-1,.555L18.1,16.149,15.656,7.824a1.167,1.167,0,0,0-1.221-.888H10.271a.654.654,0,0,0-.5.25.782.782,0,0,0-.222.527q0,.112,1.082,3.275t2.331,6.828q1.249,3.663,1.3,3.884-4.551,6.218-4.551,6.66a.638.638,0,0,0,.722.722h4.274a1.175,1.175,0,0,0,1-.555L29.865,8.1a.539.539,0,0,0,.11-.389Z" transform="translate(33.366 1.224)" fill="#0041b8"></path><path id="Path_8280" data-name="Path 8280" d="M36.657,7.256H32.438q-.778,0-.944,1.832-1.444-2.22-5.273-2.221a8.963,8.963,0,0,0-6.8,3,9.984,9.984,0,0,0-2.8,7.049,7.108,7.108,0,0,0,1.914,5.217,6.88,6.88,0,0,0,5.135,1.943,8.783,8.783,0,0,0,3.275-.666,6.526,6.526,0,0,0,2.609-1.776,4.944,4.944,0,0,1-.111.5,3,3,0,0,0-.111.666q0,.889.722.888h3.83A1.116,1.116,0,0,0,35.1,22.63L37.378,8.144a.747.747,0,0,0-.167-.611A.687.687,0,0,0,36.657,7.256ZM29.413,18.191A4.7,4.7,0,0,1,26,19.578a3.779,3.779,0,0,1-2.609-.888,3.1,3.1,0,0,1-1-2.442,4.766,4.766,0,0,1,1.388-3.469,4.623,4.623,0,0,1,3.441-1.415,3.736,3.736,0,0,1,2.581.915,3.212,3.212,0,0,1,1.028,2.526A4.563,4.563,0,0,1,29.413,18.191Z" transform="translate(66.482 0.904)" fill="#009cde"></path><path id="Path_8281" data-name="Path 8281" d="M25.564,7.256H21.346q-.778,0-.944,1.832-1.5-2.22-5.273-2.221a8.965,8.965,0,0,0-6.8,3,9.984,9.984,0,0,0-2.8,7.049,7.106,7.106,0,0,0,1.915,5.217,6.879,6.879,0,0,0,5.134,1.943,8.656,8.656,0,0,0,3.219-.666,7.01,7.01,0,0,0,2.664-1.776,3.746,3.746,0,0,0-.222,1.165q0,.889.722.888h3.83A1.116,1.116,0,0,0,24.01,22.63L26.285,8.144a.748.748,0,0,0-.166-.611A.684.684,0,0,0,25.564,7.256ZM18.321,18.218a4.815,4.815,0,0,1-3.469,1.36,3.673,3.673,0,0,1-2.581-.888,3.139,3.139,0,0,1-.971-2.442,4.766,4.766,0,0,1,1.388-3.469,4.624,4.624,0,0,1,3.441-1.415,3.737,3.737,0,0,1,2.581.916,3.213,3.213,0,0,1,1.027,2.526A4.534,4.534,0,0,1,18.321,18.218Z" transform="translate(14.521 0.904)" fill="#0041b8"></path><path id="Path_8282" data-name="Path 8282" d="M32.336,6.971A9.657,9.657,0,0,0,26.758,5.5H17.933a1.078,1.078,0,0,0-1.221,1.054L13.1,29.2a.742.742,0,0,0,.167.611.68.68,0,0,0,.555.277h4.551a.884.884,0,0,0,.888-.721l1-6.438a1.08,1.08,0,0,1,.389-.722,1.71,1.71,0,0,1,.833-.361,5.8,5.8,0,0,1,.944-.083q.443,0,1.054.056c.406.037.667.055.777.055a10.183,10.183,0,0,0,7.493-2.692,10.029,10.029,0,0,0,2.72-7.465A5.351,5.351,0,0,0,32.336,6.97ZM26.647,16.1a6.543,6.543,0,0,1-3.663.832l-1.776.056.944-5.939a.664.664,0,0,1,.721-.61h1a13.444,13.444,0,0,1,1.943.111,2.753,2.753,0,0,1,1.388.694,2.13,2.13,0,0,1,.666,1.693Q27.868,15.269,26.647,16.1Z" transform="translate(49.96 -5.5)" fill="#009cde"></path></g></g><g id="visa" transform="translate(1345.433 4872.067)"><path id="Path_8346" data-name="Path 8346" d="M0,7.6A7.6,7.6,0,0,1,7.6,0H83.546a7.6,7.6,0,0,1,7.6,7.6V53.166a7.6,7.6,0,0,1-7.6,7.6H7.6a7.6,7.6,0,0,1-7.6-7.6Z" fill="#fff"></path><g id="Group_476" data-name="Group 476" transform="translate(6.847 18.492)"><path id="Path_8347" data-name="Path 8347" d="M33.59,5.018H28.721a3.2,3.2,0,0,0-3.284,1.925L16.152,28.116H22.72s1.132-2.831,1.358-3.51h8.04c.226.793.792,3.4.792,3.4H38.8Zm-7.7,14.833c.566-1.359,2.491-6.454,2.491-6.454a15.831,15.831,0,0,0,.793-2.151l.453,2.038s1.245,5.548,1.472,6.681H25.89Z" transform="translate(38.651 -4.678)" fill="#3362ab"></path><path id="Path_8348" data-name="Path 8348" d="M29.623,20.782c0,4.755-4.3,7.926-10.984,7.926a18.56,18.56,0,0,1-7.02-1.246l.906-5.209.793.34a12.491,12.491,0,0,0,5.888,1.246c1.812,0,3.737-.679,3.737-2.265,0-1.019-.793-1.7-3.284-2.831-2.378-1.132-5.548-2.944-5.548-6.228,0-4.529,4.416-7.586,10.644-7.586a14.45,14.45,0,0,1,5.662,1.019l-.906,4.982-.453-.453A12.168,12.168,0,0,0,24.3,9.572c-2.378.113-3.51,1.132-3.51,2.038,0,1.019,1.359,1.812,3.51,2.831C27.925,16.14,29.623,18.065,29.623,20.782Z" transform="translate(25.633 -4.93)" fill="#3362ab"></path><path id="Path_8349" data-name="Path 8349" d="M2,5.412l.113-.453h9.738a2.4,2.4,0,0,1,2.718,1.925L16.72,17.075C14.569,11.64,9.586,7.224,2,5.412Z" transform="translate(-2 -4.844)" fill="#f9b50b"></path><path id="Path_8350" data-name="Path 8350" d="M25.8,5.1,15.95,28.087H9.27L3.608,8.838a24.951,24.951,0,0,1,8.719,9.511l.679,2.378L19.121,4.988H25.8Z" transform="translate(2.62 -4.763)" fill="#3362ab"></path><path id="Path_8351" data-name="Path 8351" d="M12.951,4.988h6.228l-3.963,23.1H8.988Z" transform="translate(18.073 -4.763)" fill="#3362ab"></path></g></g><g id="discover" transform="translate(1409.136 5021.791)"><path id="Path_8337" data-name="Path 8337" d="M0,6.772A6.772,6.772,0,0,1,6.772,0H74.494a6.772,6.772,0,0,1,6.772,6.772V47.406a6.772,6.772,0,0,1-6.772,6.772H6.772A6.772,6.772,0,0,1,0,47.406Z" fill="#fff"></path><g id="Group_478" data-name="Group 478" transform="translate(6.104 21.187)"><path id="Path_8338" data-name="Path 8338" d="M22.519,12.084a5.7,5.7,0,0,0-5.77-5.76h-.021a5.792,5.792,0,1,0,5.792,5.792C22.519,12.1,22.519,12.094,22.519,12.084Z" transform="translate(19.917 -6.211)" fill="#f26e21"></path><path id="Path_8339" data-name="Path 8339" d="M16.664,14.644a3.559,3.559,0,0,1-2.525,1.223A3.6,3.6,0,0,1,10.5,12.082a4.2,4.2,0,0,1,1.09-2.808A3.4,3.4,0,0,1,13.954,8.3,3.51,3.51,0,0,1,16.627,9.52V6.959a5.6,5.6,0,0,0-2.673-.668,6.452,6.452,0,0,0-3.775,1.572,5.578,5.578,0,0,0-.818.894,5.641,5.641,0,0,0,4.593,9.118l.047,0,.065,0a6.3,6.3,0,0,0,2.674-.668l-.074-2.562c-.038.038.037.073,0,.108Z" transform="translate(13.111 -6.29)" fill="#201d1c"></path><path id="Path_8340" data-name="Path 8340" d="M21.919,7.569l-2.523,6.2L16.5,6.419H14.161l4.566,11.25h1.225l4.79-11.25H22.4Z" transform="translate(27.83 -5.975)" fill="#201d1c"></path><path id="Path_8341" data-name="Path 8341" d="M17.484,11.32v6.015H23.61V15.553h-3.9V12.546H23.5V10.652H19.712V8.313h3.9V6.419H17.484Z" transform="translate(35.98 -5.975)" fill="#201d1c"></path><path id="Path_8342" data-name="Path 8342" d="M5.119,6.419H2V17.335H5.119a6.041,6.041,0,0,0,3.9-1.226,5.507,5.507,0,0,0,2.005-4.232C11.022,8.647,8.683,6.419,5.119,6.419Zm2.562,8.243a4.283,4.283,0,0,1-2.9.89H4.116V8.313h.557a3.782,3.782,0,0,1,2.9.891,3.558,3.558,0,0,1,1.225,2.674A3.33,3.33,0,0,1,7.681,14.662Z" transform="translate(-2 -5.975)" fill="#201d1c"></path><path id="Path_8343" data-name="Path 8343" d="M7.02,6.419H4.9V17.335H7.02Z" transform="translate(5.121 -5.975)" fill="#201d1c"></path><path id="Path_8344" data-name="Path 8344" d="M10.23,10.731c-1.336-.445-1.671-.78-1.671-1.337a1.41,1.41,0,0,1,1.559-1.225A2.155,2.155,0,0,1,11.9,9.06l1.114-1.448a4.851,4.851,0,0,0-3.23-1.225A3.268,3.268,0,0,0,6.331,9.505c0,1.56.669,2.228,2.674,3.008a4.332,4.332,0,0,1,1.449.668,1.226,1.226,0,0,1,.668,1.113,1.553,1.553,0,0,1-1.671,1.56,2.6,2.6,0,0,1-2.339-1.448L5.774,15.743a4.369,4.369,0,0,0,3.787,2.116,3.512,3.512,0,0,0,3.786-3.564C13.348,12.4,12.68,11.622,10.23,10.731Z" transform="translate(7.257 -6.054)" fill="#201d1c"></path><path id="Path_8345" data-name="Path 8345" d="M24.245,12.768A2.939,2.939,0,0,0,26.806,9.65c0-2-1.448-3.231-3.9-3.231H19.677V17.335h2.116V12.991h.335l3.007,4.344H27.7Zm-1.783-1.337h-.668V8.09h.668c1.337,0,2.117.557,2.117,1.671S23.8,11.431,22.462,11.431Z" transform="translate(41.36 -5.975)" fill="#201d1c"></path></g></g><path id="Path_8480" data-name="Path 8480" d="M0,6.449A6.657,6.657,0,0,1,6.848,0H75.33a6.657,6.657,0,0,1,6.848,6.449V45.141A6.657,6.657,0,0,1,75.33,51.59H6.848A6.657,6.657,0,0,1,0,45.141Z" transform="translate(1408.224 4949.691)" fill="#fff"></path><g id="mastercard" transform="translate(1463.479 4869.882)"><path id="Path_8357" data-name="Path 8357" d="M0,7.868A7.868,7.868,0,0,1,7.868,0H86.551a7.868,7.868,0,0,1,7.868,7.868v47.21a7.868,7.868,0,0,1-7.868,7.868H7.868A7.868,7.868,0,0,1,0,55.078Z" fill="#fff"></path><g id="Group_477" data-name="Group 477" transform="translate(8.48 7.192)"><path id="Path_8358" data-name="Path 8358" d="M30.058,3.264,9.34,3.335l.628,37.931,20.719-.071Z" transform="translate(18.717 2.015)" fill="#ff5f00"></path><path id="Path_8359" data-name="Path 8359" d="M31.766,26.144A24,24,0,0,1,40.507,7.128,23.523,23.523,0,0,0,2.349,26.245a24.348,24.348,0,0,0,24.2,24.069A23.156,23.156,0,0,0,41.138,45.1,24.6,24.6,0,0,1,31.766,26.144Z" transform="translate(-2.346 -1.752)" fill="#eb001b"></path><path id="Path_8360" data-name="Path 8360" d="M50.773,26.017A23.523,23.523,0,0,1,12.616,45.134a23.8,23.8,0,0,0,8.741-19.016A24.706,24.706,0,0,0,11.984,7.163a23.154,23.154,0,0,1,14.59-5.216A24.391,24.391,0,0,1,50.773,26.017Z" transform="translate(26.683 -1.947)" fill="#f79e1b"></path></g></g><g id="american-express" transform="translate(1408.25 4949.925)"><path id="Path_8367" data-name="Path 8367" d="M60.628,7.2l-1.59,3.5h3.188ZM42.285,9.373a.881.881,0,0,0,.476-.836.8.8,0,0,0-.485-.777,2.582,2.582,0,0,0-1.1-.158H38.337V9.555h2.806A2.325,2.325,0,0,0,42.285,9.373ZM5.844,7.2l-1.572,3.5H7.425ZM79.016,29.651h-4.46V27.766H79a1.407,1.407,0,0,0,.935-.218.742.742,0,0,0,.273-.573.694.694,0,0,0-.282-.581,1.257,1.257,0,0,0-.814-.2c-2.169-.067-4.874.061-4.874-2.721,0-1.275.89-2.617,3.314-2.617h4.6V19.11H77.875a5.169,5.169,0,0,0-2.89.718V19.11H68.663a4.69,4.69,0,0,0-2.759.718V19.11H54.614v.718A6.487,6.487,0,0,0,51.5,19.11H44.053v.718c-.711-.626-2.292-.718-3.255-.718H32.464l-1.907,1.878L28.771,19.11H16.321V31.379H28.536L30.5,29.471l1.851,1.908,7.529.006V28.5h.74a8.556,8.556,0,0,0,3.217-.431v3.311h6.211v-3.2h.3c.382,0,.42.015.42.362v2.835H69.635a5.775,5.775,0,0,0,3.143-.785v.785h5.985a8.729,8.729,0,0,0,3.387-.565V28.527a3.777,3.777,0,0,1-3.134,1.124Zm-38.3-2.9H37.839V29.7H33.35l-2.844-2.91L27.551,29.7H18.4V20.911h9.289l2.841,2.882,2.938-2.882h7.38c1.833,0,3.892.462,3.892,2.9S42.739,26.754,40.721,26.754Zm13.857-.4a2.379,2.379,0,0,1,.383,1.605V29.7H52.641V28.6c0-.529.056-1.312-.373-1.721a2.4,2.4,0,0,0-1.694-.39H48.106V29.7H45.785V20.911h5.331a6.229,6.229,0,0,1,2.779.415,2.033,2.033,0,0,1,1.187,1.952,2.48,2.48,0,0,1-1.637,2.339A2.512,2.512,0,0,1,54.577,26.355Zm9.54-3.626H58.71v1.6h5.276v1.794H58.71v1.75l5.408.008V29.7H56.41V20.911h7.708ZM70.052,29.7h-4.5V27.818h4.48a1.458,1.458,0,0,0,.943-.218.749.749,0,0,0,.273-.573.728.728,0,0,0-.282-.582,1.305,1.305,0,0,0-.823-.195c-2.16-.067-4.865.061-4.865-2.722,0-1.275.881-2.618,3.3-2.618h4.63v1.871H68.977a1.69,1.69,0,0,0-.925.159.657.657,0,0,0-.347.632.682.682,0,0,0,.505.655,2.9,2.9,0,0,0,.9.1l1.243.031a3.98,3.98,0,0,1,2.637.707,2.321,2.321,0,0,1,.691,1.863C73.68,28.82,72.381,29.7,70.052,29.7ZM52.14,22.871a2.476,2.476,0,0,0-1.1-.159H48.194v1.975H51a2.4,2.4,0,0,0,1.14-.181.928.928,0,0,0,.479-.844A.825.825,0,0,0,52.14,22.871Zm25.8-.159a1.735,1.735,0,0,0-.935.159.712.712,0,0,0,.168,1.288,2.877,2.877,0,0,0,.89.1l1.252.03A3.9,3.9,0,0,1,81.94,25a1.156,1.156,0,0,1,.214.218v-2.5h-4.21Zm-37.144,0H37.789v2.239h2.985c.887,0,1.439-.4,1.439-1.161S41.634,22.712,40.8,22.712Zm-20.1,0v1.6h5.07V26.1H20.7v1.749h5.678l2.638-2.579-2.526-2.562ZM35.53,28.861V21.812l-3.546,3.468ZM20.9,14.744v1.515h19.3l-.009-3.2h.373c.262.008.338.03.338.423v2.782h9.98v-.746a8.555,8.555,0,0,0,3.7.746h4.2l.9-1.952h1.992l.879,1.952h8.09V14.4l1.225,1.854h6.483V4H71.928V5.448L71.03,4H64.446V5.448L63.621,4H54.727a8.661,8.661,0,0,0-3.854.716V4H44.736v.716A4.068,4.068,0,0,0,42.128,4H19.707L18.2,7.167,16.657,4H9.6V5.448L8.82,4H2.8L0,9.829v4.663L4.136,5.7H7.567l3.928,8.322V5.7h3.77l3.022,5.963L21.064,5.7h3.845v8.79H22.542l-.009-6.884-3.349,6.884H17.156L13.8,7.6v6.89H9.1l-.887-1.961H3.4l-.9,1.961H0V16.26H3.946l.89-1.953H6.828l.887,1.953H15.48V14.767l.693,1.5H20.2l.693-1.522ZM51.3,6.726A4.986,4.986,0,0,1,54.809,5.7h2.236V7.584H54.856a2.364,2.364,0,0,0-1.777.521,2.731,2.731,0,0,0-.664,1.991,2.86,2.86,0,0,0,.635,2.064,2.378,2.378,0,0,0,1.61.453H55.7L58.952,5.7h3.46l3.91,8.314V5.7h3.517l4.06,6.122V5.7h2.366v8.79H72.992l-4.378-6.6v6.6h-4.7l-.9-1.961h-4.8l-.872,1.961h-2.7a5.182,5.182,0,0,1-3.349-.972,4.19,4.19,0,0,1-1.234-3.356A4.411,4.411,0,0,1,51.3,6.726ZM46.551,5.7h2.356v8.79H46.551Zm-10.624,0h5.312a5.92,5.92,0,0,1,2.8.421A2.021,2.021,0,0,1,45.2,8.068a2.49,2.49,0,0,1-1.627,2.343,2.687,2.687,0,0,1,1.143.74,2.349,2.349,0,0,1,.382,1.613v1.727H42.773l-.009-1.109A2.441,2.441,0,0,0,42.4,11.67a2.426,2.426,0,0,0-1.683-.376H38.237v3.2H35.927Zm-9.31,0h7.715v1.83H28.926V9.116H34.2v1.8H28.926v1.755h5.406v1.818H26.617Z" transform="translate(0 9.691)" fill="#016fd0"></path></g><g id="Size_24" data-name="Size=24" transform="translate(1496.617 5055.164)"><g id="Group_633" data-name="Group 633" transform="translate(-38 25.358)"><path id="Path_8483" data-name="Path 8483" d="M0,4.661C0,2.087,2.413,0,5.39,0h53.9c2.977,0,5.39,2.087,5.39,4.661V32.624c0,2.574-2.413,4.661-5.39,4.661H5.39C2.413,37.285,0,35.2,0,32.624Z" transform="translate(-4.629 10.582)" fill="#fff"></path><path id="Path_8260" data-name="Path 8260" d="M23.918,11.542l1.3-6.483a1.432,1.432,0,0,0-1-1.673A1.5,1.5,0,0,0,22.4,4.45l-1.18,4.039-.93-3.977a1.437,1.437,0,0,0-1.706-1.119,1.5,1.5,0,0,0-1.035,1.8L18.1,9.7a1.272,1.272,0,0,0-1.678-.248l-.084.056a1.494,1.494,0,0,0-.33,1.964,1.287,1.287,0,0,0-.851.386l-.056.062a1.557,1.557,0,0,0,.241,2.182l.55.548a4.426,4.426,0,0,0,4.552,4.308.308.308,0,0,0,.082-.011c3.291-.033,4.738-1.993,4.986-4.968a2.5,2.5,0,0,0-.459-1.969,1.032,1.032,0,0,0-.576-.336ZM20.326,18.35a.314.314,0,0,1,.049,0c3.032.028,4.308-1.673,4.537-4.414a1.959,1.959,0,0,0-.3-1.51.569.569,0,0,0-.179-.129l-.067-.022-3.524-.822a.522.522,0,0,0-.055-.012l-.056-.011a1.476,1.476,0,0,0-.565,0,.67.67,0,0,0-.537.5.846.846,0,0,0,.143.943.3.3,0,0,1,.149.118,2.664,2.664,0,0,0,.759.31L23,13.82a.3.3,0,0,1-.123.593L22.8,14.4a2.114,2.114,0,0,0-.923.106,1.585,1.585,0,0,0-.962,1.606.3.3,0,0,1-.319.285.3.3,0,0,1-.285-.319,2.24,2.24,0,0,1,1.063-2.008l-.845-.2a3.7,3.7,0,0,1-.741-.279,1.348,1.348,0,0,1-.378.391l-.067.045a1.358,1.358,0,0,1-.118.071,1.362,1.362,0,0,1-.218,1.585l-.062.061a1.366,1.366,0,0,1-1.924.028l-.452-.451A3.837,3.837,0,0,0,20.326,18.35Zm-1.018-5.1a.706.706,0,0,1-.225.24l-.067.039a.756.756,0,0,1-1.052-.2l-1.32-1.964c-.358-.548-.313-1.119.034-1.359l.062-.045c.448-.257.822-.062,1.208.5l.314.469a.3.3,0,0,0,.055.083l.668,1A1.313,1.313,0,0,0,19.308,13.25Zm4.021-1.845-2.338-.544-.014,0a1.182,1.182,0,0,0-.143-.03,2.169,2.169,0,0,0-.806.006,1.27,1.27,0,0,0-.776.492l-.427-.637L18.149,5.1l-.006-.034a.9.9,0,0,1,.565-1.08.83.83,0,0,1,.99.649L20.885,9.7a.3.3,0,0,0,.218.275.3.3,0,0,0,.375-.207l1.5-5.158a.9.9,0,0,1,1.08-.643.833.833,0,0,1,.565.968Zm-5.868,2.264a1.363,1.363,0,0,0,1.151.6.751.751,0,0,1-.043,1l-.056.061a.751.751,0,0,1-1.063.011l-1.678-1.661c-.464-.464-.526-1.035-.235-1.337l.056-.062a.685.685,0,0,1,.883-.083ZM11.676,26.206a1.573,1.573,0,0,0,1.678-1.572c0-.867-.615-1.242-1.371-1.466-.481-.14-.783-.246-.783-.587a.5.5,0,0,1,.537-.509.742.742,0,0,1,.638.408l.789-.5a1.478,1.478,0,0,0-1.4-.822,1.474,1.474,0,0,0-1.555,1.477c0,.632.38,1.119,1.315,1.393.509.145.833.246.833.649a.606.606,0,0,1-.671.615,1.236,1.236,0,0,1-.945-.526l-.655.655A1.94,1.94,0,0,0,11.676,26.206ZM19.7,21.222v.9a.786.786,0,0,0-.917.839v.364a1.176,1.176,0,0,1,.889-.336v.906a.83.83,0,0,0-.889.817v1.41H17.83V22.9a1.6,1.6,0,0,1,1.729-1.678Zm7.765,3.166V23.56a1.169,1.169,0,0,0,.889.336V23a.843.843,0,0,1-.889-.817v-.532h-.951v2.8a1.6,1.6,0,0,0,1.729,1.678h.14v-.9A.789.789,0,0,1,27.463,24.388ZM13.7,24.422a1.824,1.824,0,1,0,1.824-1.785A1.809,1.809,0,0,0,13.7,24.422Zm16.459,1.113a.638.638,0,1,1-.638-.638A.641.641,0,0,1,30.154,25.535Zm-14.635-.224a.89.89,0,1,0-.873-.889A.871.871,0,0,0,15.519,25.311Zm4.431-.89a1.824,1.824,0,1,0,1.824-1.785A1.809,1.809,0,0,0,19.95,24.422Zm1.824.89a.89.89,0,1,0-.873-.889A.867.867,0,0,0,21.774,25.311Zm3.262-2.579v.386a.958.958,0,0,1,.929-.436V23.7a.806.806,0,0,0-.9.873v1.544h-.951V22.732Z" transform="translate(7.593 14.45)" fill="#f884a1" fill-rule="evenodd"></path></g></g><g id="Group_481" data-name="Group 481" transform="translate(1324.958 5094.117)"><g id="SEPA" transform="translate(-226.512 -184)"><rect id="Rectangle_123" data-name="Rectangle 123" width="86.981" height="57.987" rx="3.5" transform="translate(0 0)" fill="#fff"></rect><path id="Path_8393" data-name="Path 8393" d="M11.332,38.282l.663-.067a.815.815,0,0,0,.243.493.732.732,0,0,0,.494.157.757.757,0,0,0,.5-.14.417.417,0,0,0,.167-.327.311.311,0,0,0-.07-.2.561.561,0,0,0-.244-.147q-.12-.041-.544-.147a1.836,1.836,0,0,1-.767-.333.878.878,0,0,1-.31-.678.865.865,0,0,1,.146-.482.913.913,0,0,1,.421-.342,1.691,1.691,0,0,1,.664-.117,1.42,1.42,0,0,1,.956.28.988.988,0,0,1,.337.746L13.3,37a.581.581,0,0,0-.188-.375.685.685,0,0,0-.431-.114.776.776,0,0,0-.465.122.246.246,0,0,0-.108.21.26.26,0,0,0,.1.205,1.78,1.78,0,0,0,.625.225,3.261,3.261,0,0,1,.735.243.951.951,0,0,1,.373.344,1.015,1.015,0,0,1,.135.54,1,1,0,0,1-.161.546.967.967,0,0,1-.456.378,1.906,1.906,0,0,1-.735.124,1.456,1.456,0,0,1-.983-.3A1.3,1.3,0,0,1,11.332,38.282Z" transform="translate(1.497 3.018)" fill="#0f288d" fill-rule="evenodd"></path><path id="Path_8394" data-name="Path 8394" d="M14.671,36.939h.649v2.447h-.649Zm0-.932h.649v.6h-.649Z" transform="translate(1.61 3.02)" fill="#0f288d" fill-rule="evenodd"></path><path id="Path_8395" data-name="Path 8395" d="M18.3,39.357h-.649V38.106a1.952,1.952,0,0,0-.041-.514.363.363,0,0,0-.134-.182.383.383,0,0,0-.223-.065.514.514,0,0,0-.3.092.464.464,0,0,0-.182.245,2.124,2.124,0,0,0-.049.563v1.111h-.649V36.91h.6v.36a.994.994,0,0,1,1.2-.342.655.655,0,0,1,.268.2.714.714,0,0,1,.127.273,2.028,2.028,0,0,1,.036.436Z" transform="translate(1.658 3.048)" fill="#0f288d" fill-rule="evenodd"></path><path id="Path_8396" data-name="Path 8396" d="M19.521,38.081a.892.892,0,0,0,.15.572.459.459,0,0,0,.369.181.507.507,0,0,0,.4-.186A.819.819,0,0,0,20.6,38.1a.868.868,0,0,0-.155-.566.491.491,0,0,0-.393-.185.472.472,0,0,0-.38.181A.858.858,0,0,0,19.521,38.081Zm-.582,1.437.736.08a.275.275,0,0,0,.085.188.467.467,0,0,0,.291.073.76.76,0,0,0,.381-.076.315.315,0,0,0,.129-.164.987.987,0,0,0,.03-.3l0-.357a.871.871,0,0,1-.729.392.9.9,0,0,1-.781-.418,1.423,1.423,0,0,1-.226-.822,1.354,1.354,0,0,1,.3-.942.955.955,0,0,1,.736-.325.9.9,0,0,1,.749.4V36.91h.6v2.2a2.188,2.188,0,0,1-.072.649.8.8,0,0,1-.2.337.887.887,0,0,1-.345.192,1.813,1.813,0,0,1-.545.069,1.4,1.4,0,0,1-.883-.215.675.675,0,0,1-.26-.545C18.937,39.576,18.937,39.549,18.939,39.518Z" transform="translate(1.752 3.048)" fill="#0f288d" fill-rule="evenodd"></path><path id="Path_8397" data-name="Path 8397" d="M21.915,36.007h.649v3.379h-.649Z" transform="translate(1.856 3.02)" fill="#0f288d" fill-rule="evenodd"></path><path id="Path_8398" data-name="Path 8398" d="M24.784,37.929a.637.637,0,0,0-.146-.434.445.445,0,0,0-.338-.149.45.45,0,0,0-.352.157.611.611,0,0,0-.137.426Zm-.033.657.643.107a1.057,1.057,0,0,1-.394.539,1.159,1.159,0,0,1-.673.185A1.1,1.1,0,0,1,23.379,39a1.408,1.408,0,0,1-.242-.847,1.358,1.358,0,0,1,.319-.957,1.047,1.047,0,0,1,.805-.346,1.086,1.086,0,0,1,.863.363,1.613,1.613,0,0,1,.3,1.112H23.8a.654.654,0,0,0,.158.45.5.5,0,0,0,.377.161.4.4,0,0,0,.258-.083A.509.509,0,0,0,24.75,38.587Z" transform="translate(1.897 3.048)" fill="#0f288d" fill-rule="evenodd"></path><path id="Path_8399" data-name="Path 8399" d="M27.406,39.386V36.007h2.5v.57H28.089v.751h1.687v.57H28.089v.919h1.881v.57Z" transform="translate(2.042 3.02)" fill="#0f288d" fill-rule="evenodd"></path><path id="Path_8400" data-name="Path 8400" d="M32.183,39.355v-.367a1,1,0,0,1-.812.427.9.9,0,0,1-.443-.109.642.642,0,0,1-.284-.3,1.362,1.362,0,0,1-.088-.543V36.908h.649v1.126a3.107,3.107,0,0,0,.036.633.345.345,0,0,0,.13.185.4.4,0,0,0,.239.068.508.508,0,0,0,.3-.091.463.463,0,0,0,.18-.226,2.638,2.638,0,0,0,.048-.661V36.908h.649v2.447Z" transform="translate(2.149 3.05)" fill="#0f288d" fill-rule="evenodd"></path><path id="Path_8401" data-name="Path 8401" d="M34.114,39.357h-.649V36.91h.6v.348a1.087,1.087,0,0,1,.278-.327.5.5,0,0,1,.28-.081.819.819,0,0,1,.426.123l-.2.567a.572.572,0,0,0-.305-.106.362.362,0,0,0-.231.075.514.514,0,0,0-.149.271,3.844,3.844,0,0,0-.054.821Z" transform="translate(2.248 3.048)" fill="#0f288d" fill-rule="evenodd"></path><path id="Path_8402" data-name="Path 8402" d="M35.915,38.134a.815.815,0,0,0,.173.56.565.565,0,0,0,.853,0,.827.827,0,0,0,.172-.565.812.812,0,0,0-.172-.555.565.565,0,0,0-.853,0A.814.814,0,0,0,35.915,38.134Zm-.663-.035a1.334,1.334,0,0,1,.159-.627,1.093,1.093,0,0,1,.45-.463,1.33,1.33,0,0,1,.651-.16,1.218,1.218,0,0,1,.909.362,1.255,1.255,0,0,1,.355.915,1.269,1.269,0,0,1-.358.924,1.207,1.207,0,0,1-.9.367,1.418,1.418,0,0,1-.641-.153,1.045,1.045,0,0,1-.464-.448A1.5,1.5,0,0,1,35.252,38.1Z" transform="translate(2.309 3.048)" fill="#0f288d" fill-rule="evenodd"></path><path id="Path_8403" data-name="Path 8403" d="M40.42,36.577v.965h.372a1.743,1.743,0,0,0,.537-.053.447.447,0,0,0,.212-.167.461.461,0,0,0,.077-.265.442.442,0,0,0-.108-.306.469.469,0,0,0-.273-.151,3.243,3.243,0,0,0-.489-.023Zm-.683,2.809V36.007H40.83a3.959,3.959,0,0,1,.81.051.883.883,0,0,1,.485.331,1.05,1.05,0,0,1,.2.658,1.106,1.106,0,0,1-.113.523.925.925,0,0,1-.286.333.982.982,0,0,1-.353.16,3.855,3.855,0,0,1-.706.048H40.42v1.274Z" transform="translate(2.461 3.02)" fill="#0f288d" fill-rule="evenodd"></path><path id="Path_8404" data-name="Path 8404" d="M44.259,38.184a3.983,3.983,0,0,1-.393.1,1.173,1.173,0,0,0-.351.113.271.271,0,0,0-.126.229.32.32,0,0,0,.1.236.352.352,0,0,0,.257.1.557.557,0,0,0,.333-.116.408.408,0,0,0,.154-.215,1.3,1.3,0,0,0,.025-.317Zm-.87-.53-.582-.107a.917.917,0,0,1,.341-.526,1.244,1.244,0,0,1,.718-.171,1.549,1.549,0,0,1,.645.1.646.646,0,0,1,.3.261,1.341,1.341,0,0,1,.087.581l-.007.757a2.654,2.654,0,0,0,.031.477,1.4,1.4,0,0,0,.116.329h-.643c-.017-.042-.038-.105-.062-.188-.011-.038-.018-.063-.023-.075a1.17,1.17,0,0,1-.354.243,1.01,1.01,0,0,1-.4.081.831.831,0,0,1-.595-.206.686.686,0,0,1-.217-.52.7.7,0,0,1,.1-.371.651.651,0,0,1,.278-.25,2.179,2.179,0,0,1,.515-.151,3.5,3.5,0,0,0,.628-.159V37.7a.342.342,0,0,0-.093-.27.552.552,0,0,0-.35-.08.466.466,0,0,0-.271.068A.474.474,0,0,0,43.389,37.654Z" transform="translate(2.563 3.048)" fill="#0f288d" fill-rule="evenodd"></path><path id="Path_8405" data-name="Path 8405" d="M45.275,36.908h.689l.586,1.738.572-1.738h.669l-1.018,2.786a1.744,1.744,0,0,1-.163.328.708.708,0,0,1-.178.184.771.771,0,0,1-.247.11,1.266,1.266,0,0,1-.331.04,1.709,1.709,0,0,1-.367-.039l-.06-.507a1.408,1.408,0,0,0,.275.03.407.407,0,0,0,.336-.134.936.936,0,0,0,.167-.342Z" transform="translate(2.649 3.05)" fill="#0f288d" fill-rule="evenodd"></path><path id="Path_8406" data-name="Path 8406" d="M48.2,36.91h.6v.334a.959.959,0,0,1,.764-.395.823.823,0,0,1,.408.1.745.745,0,0,1,.284.293,1.138,1.138,0,0,1,.348-.293.853.853,0,0,1,.4-.1.884.884,0,0,1,.456.11.67.67,0,0,1,.279.322,1.406,1.406,0,0,1,.067.508v1.568h-.649v-1.4a1.047,1.047,0,0,0-.067-.471.306.306,0,0,0-.276-.139.439.439,0,0,0-.256.083.461.461,0,0,0-.172.244,1.754,1.754,0,0,0-.053.507v1.178h-.649V38.014a1.865,1.865,0,0,0-.035-.462.294.294,0,0,0-.107-.155.339.339,0,0,0-.2-.051.47.47,0,0,0-.269.081.445.445,0,0,0-.171.233,1.74,1.74,0,0,0-.052.506v1.192H48.2Z" transform="translate(2.748 3.048)" fill="#0f288d" fill-rule="evenodd"></path><path id="Path_8407" data-name="Path 8407" d="M53.9,37.929a.637.637,0,0,0-.146-.434.445.445,0,0,0-.338-.149.449.449,0,0,0-.352.157.611.611,0,0,0-.137.426Zm-.033.657.643.107a1.058,1.058,0,0,1-.394.539,1.16,1.16,0,0,1-.673.185A1.1,1.1,0,0,1,52.495,39a1.408,1.408,0,0,1-.242-.847,1.36,1.36,0,0,1,.318-.957,1.048,1.048,0,0,1,.805-.346,1.085,1.085,0,0,1,.863.363,1.613,1.613,0,0,1,.3,1.112H52.915a.655.655,0,0,0,.158.45.5.5,0,0,0,.377.161.4.4,0,0,0,.258-.083A.507.507,0,0,0,53.866,38.587Z" transform="translate(2.886 3.048)" fill="#0f288d" fill-rule="evenodd"></path><path id="Path_8408" data-name="Path 8408" d="M57.334,39.357h-.649V38.106a1.962,1.962,0,0,0-.041-.514.362.362,0,0,0-.134-.182.382.382,0,0,0-.223-.065.513.513,0,0,0-.3.092.465.465,0,0,0-.182.245,2.133,2.133,0,0,0-.049.563v1.111h-.649V36.91h.6v.36a.994.994,0,0,1,1.2-.342.656.656,0,0,1,.268.2.714.714,0,0,1,.126.273,2.016,2.016,0,0,1,.036.436Z" transform="translate(2.983 3.048)" fill="#0f288d" fill-rule="evenodd"></path><path id="Path_8409" data-name="Path 8409" d="M59.159,36.937v.516h-.442v.99a2.5,2.5,0,0,0,.013.35.142.142,0,0,0,.056.082.178.178,0,0,0,.107.032.811.811,0,0,0,.256-.062l.057.5a1.271,1.271,0,0,1-.508.1.8.8,0,0,1-.314-.059.458.458,0,0,1-.205-.153.6.6,0,0,1-.09-.253,3.144,3.144,0,0,1-.021-.457v-1.07h-.295v-.516h.295v-.489l.649-.382v.872Z" transform="translate(3.073 3.022)" fill="#0f288d" fill-rule="evenodd"></path><path id="Path_8410" data-name="Path 8410" d="M59.467,38.667l.649-.1a.474.474,0,0,0,.168.285.567.567,0,0,0,.354.1.635.635,0,0,0,.377-.093.208.208,0,0,0,.085-.174.171.171,0,0,0-.047-.123.517.517,0,0,0-.218-.086,3.516,3.516,0,0,1-1-.317.631.631,0,0,1-.292-.552.68.68,0,0,1,.252-.536,1.18,1.18,0,0,1,.782-.217,1.376,1.376,0,0,1,.75.163.833.833,0,0,1,.338.481l-.609.114a.377.377,0,0,0-.15-.219.553.553,0,0,0-.316-.076.708.708,0,0,0-.37.072.153.153,0,0,0-.075.132.144.144,0,0,0,.065.119,2.443,2.443,0,0,0,.607.183,1.808,1.808,0,0,1,.725.29.6.6,0,0,1,.2.485.746.746,0,0,1-.281.582,1.236,1.236,0,0,1-.831.244,1.366,1.366,0,0,1-.79-.2A.931.931,0,0,1,59.467,38.667Z" transform="translate(3.131 3.048)" fill="#0f288d" fill-rule="evenodd"></path><path id="Path_8411" data-name="Path 8411" d="M65.567,38.052,65.095,36.8l-.456,1.254Zm1.252,1.334h-.735l-.292-.764h-1.36l-.278.764h-.723l1.307-3.379h.718Z" transform="translate(3.265 3.02)" fill="#0f288d" fill-rule="evenodd"></path><path id="Path_8412" data-name="Path 8412" d="M67.806,39.357h-.649V36.91h.6v.348a1.082,1.082,0,0,1,.278-.327.5.5,0,0,1,.28-.081.82.82,0,0,1,.426.123l-.2.567a.573.573,0,0,0-.305-.106.362.362,0,0,0-.231.075.514.514,0,0,0-.149.271,3.83,3.83,0,0,0-.054.821Z" transform="translate(3.392 3.048)" fill="#0f288d" fill-rule="evenodd"></path><path id="Path_8413" data-name="Path 8413" d="M70.559,37.929a.639.639,0,0,0-.146-.434.466.466,0,0,0-.69.008.61.61,0,0,0-.137.426Zm-.033.657.643.107a1.056,1.056,0,0,1-.394.539,1.159,1.159,0,0,1-.673.185A1.1,1.1,0,0,1,69.155,39a1.408,1.408,0,0,1-.242-.847,1.359,1.359,0,0,1,.319-.957,1.047,1.047,0,0,1,.805-.346,1.086,1.086,0,0,1,.863.363,1.614,1.614,0,0,1,.3,1.112H69.575a.657.657,0,0,0,.158.45.5.5,0,0,0,.377.161.4.4,0,0,0,.258-.083A.51.51,0,0,0,70.526,38.587Z" transform="translate(3.451 3.048)" fill="#0f288d" fill-rule="evenodd"></path><path id="Path_8414" data-name="Path 8414" d="M73.123,38.184a3.974,3.974,0,0,1-.393.1,1.175,1.175,0,0,0-.351.113.271.271,0,0,0-.126.229.32.32,0,0,0,.1.236.351.351,0,0,0,.257.1.557.557,0,0,0,.333-.116.409.409,0,0,0,.154-.215,1.306,1.306,0,0,0,.025-.317Zm-.87-.53-.582-.107a.917.917,0,0,1,.341-.526,1.244,1.244,0,0,1,.718-.171,1.549,1.549,0,0,1,.645.1.645.645,0,0,1,.3.261,1.34,1.34,0,0,1,.087.581l-.007.757a2.653,2.653,0,0,0,.031.477,1.407,1.407,0,0,0,.116.329h-.642c-.017-.042-.038-.105-.062-.188-.01-.038-.018-.063-.023-.075a1.169,1.169,0,0,1-.354.243,1.011,1.011,0,0,1-.4.081.831.831,0,0,1-.595-.206.686.686,0,0,1-.217-.52.7.7,0,0,1,.1-.371.649.649,0,0,1,.277-.25,2.179,2.179,0,0,1,.515-.151,3.5,3.5,0,0,0,.628-.159V37.7a.342.342,0,0,0-.093-.27.551.551,0,0,0-.35-.08.465.465,0,0,0-.271.068A.475.475,0,0,0,72.253,37.654Z" transform="translate(3.543 3.048)" fill="#0f288d" fill-rule="evenodd"></path><path id="Path_8415" data-name="Path 8415" d="M25.67,23.346H21.25a2.852,2.852,0,0,0-.255-1.463q-.395-.551-2.178-.551a5.374,5.374,0,0,0-2.293.318q-.56.319-.56,1.386a1.382,1.382,0,0,0,.5,1.271,2.064,2.064,0,0,0,.943.254l.892.063q2.866.191,3.58.267A5.46,5.46,0,0,1,25.162,26.1a3.2,3.2,0,0,1,.956,2,13.963,13.963,0,0,1,.089,1.665,8.821,8.821,0,0,1-.407,3.127,4.035,4.035,0,0,1-3.318,2.3,19.487,19.487,0,0,1-3.307.2A20.338,20.338,0,0,1,14,34.946a3.378,3.378,0,0,1-2.365-2.209,10.5,10.5,0,0,1-.318-3.084h4.421c0,.16,0,.283,0,.368q0,1.152.66,1.482a2.588,2.588,0,0,0,1.105.241h1.625a5.871,5.871,0,0,0,1.587-.128,1.294,1.294,0,0,0,.8-.774,2.956,2.956,0,0,0,.1-.851q0-1.168-.85-1.422a26.458,26.458,0,0,0-2.957-.279Q15.69,28.136,14.865,28a3.926,3.926,0,0,1-2.893-1.676,6.6,6.6,0,0,1-.635-3.264,8.467,8.467,0,0,1,.343-2.667,2.92,2.92,0,0,1,1.106-1.524,5.6,5.6,0,0,1,2.86-.94q1.449-.127,3.216-.127a17.156,17.156,0,0,1,3.966.319q2.886.777,2.886,4.351C25.713,22.663,25.7,22.955,25.67,23.346Z" transform="translate(1.496 2.401)" fill="#0f288d" fill-rule="evenodd"></path><path id="Path_8416" data-name="Path 8416" d="M48.753,26.724h2.962a5.287,5.287,0,0,0,1.716-.219,1.272,1.272,0,0,0,.563-.929,7.811,7.811,0,0,0,.09-1.379,5.7,5.7,0,0,0-.179-1.665,1.419,1.419,0,0,0-1.229-.928q-.192-.025-.921-.026h-3ZM44,35.393V17.707h8.853a9.873,9.873,0,0,1,2.777.3,4.316,4.316,0,0,1,2.934,2.807,10.858,10.858,0,0,1,.388,3.352,12.5,12.5,0,0,1-.427,3.868,3.978,3.978,0,0,1-3.5,2.678q-.311.052-2.649.091l-.789.026H48.753v4.566Z" transform="translate(2.606 2.398)" fill="#0f288d" fill-rule="evenodd"></path><path id="Path_8417" data-name="Path 8417" d="M67.726,28.891,65.5,21.224l-2.161,7.667Zm.944,3.446H62.317l-.854,3.057H56.547l5.3-17.686H69.02l5.37,17.686H69.577Z" transform="translate(3.032 2.398)" fill="#0f288d" fill-rule="evenodd"></path><path id="Path_8418" data-name="Path 8418" d="M38.043,20.19A6.243,6.243,0,0,1,42.9,22.511l1.024-2.2a9,9,0,0,0-14.449,3.02h-2L26.3,25.864h2.57c-.019.235-.032.47-.032.71a8.524,8.524,0,0,0,.044.861H27.591l-1.179,2.534h3.127a9.006,9.006,0,0,0,13.208,3.81V30.673a6.245,6.245,0,0,1-9.943-.7h6.548l1.179-2.534H31.84a6.422,6.422,0,0,1-.069-.934c0-.215.011-.427.032-.637h9.459l1.179-2.533h-9.82A6.26,6.26,0,0,1,38.043,20.19Z" transform="translate(2.005 2.404)" fill="#f6bc25" fill-rule="evenodd"></path></g></g><g id="apple-pay" transform="translate(1116.329 4985.405)"><path id="Path_8419" data-name="Path 8419" d="M0,7.934A7.934,7.934,0,0,1,7.934,0H87.278a7.934,7.934,0,0,1,7.934,7.934V55.54a7.934,7.934,0,0,1-7.934,7.934H7.934A7.934,7.934,0,0,1,0,55.54Z" transform="translate(0 0)" fill="#fff"></path><path id="Path_8420" data-name="Path 8420" d="M68.069,37.009c3.668,0,5.394-1.4,6.9-5.642L81.576,12.84H77.751l-4.43,14.334h-.078L68.815,12.86H64.882l6.372,17.634-.341,1.072a2.989,2.989,0,0,1-3.171,2.517c-.3,0-.871-.031-1.1-.061v2.912a10.365,10.365,0,0,0,1.43.094ZM55.323,27.731c-2.006,0-3.279-.971-3.279-2.44,0-1.522,1.228-2.409,3.575-2.55l4.181-.264v1.369a4.089,4.089,0,0,1-4.251,3.918c-.076,0-.151-.01-.225-.016Zm-1.009,2.875a6.223,6.223,0,0,0,5.549-3.093h.078v2.912h3.481V18.363c0-3.5-2.8-5.751-7.1-5.751-3.994,0-6.949,2.284-7.057,5.425h3.389a3.3,3.3,0,0,1,3.559-2.472c2.3,0,3.59,1.073,3.59,3.046v1.336l-4.691.28c-4.368.264-6.73,2.051-6.73,5.161,0,3.153,2.436,5.235,5.934,5.235ZM34.138,9.359h4.336c3.265,0,5.13,1.741,5.13,4.8s-1.865,4.818-5.145,4.818H34.138ZM30.377,6.188V30.42h3.762V22.159h5.207a7.69,7.69,0,0,0,8.092-7.267c.013-.241.015-.481,0-.722a7.605,7.605,0,0,0-7.231-7.96c-.247-.011-.493-.01-.741,0ZM17.892,10.71c-2.161-.125-4.011,1.228-5.036,1.228s-2.611-1.165-4.321-1.132A6.384,6.384,0,0,0,3.11,14.1C.779,18.111,2.5,24.048,4.757,27.312c1.1,1.618,2.427,3.389,4.166,3.326,1.647-.061,2.3-1.072,4.29-1.072s2.58,1.072,4.321,1.04c1.8-.031,2.938-1.618,4.045-3.236a14.163,14.163,0,0,0,1.8-3.721,5.857,5.857,0,0,1-3.512-5.339,5.986,5.986,0,0,1,2.844-5A6.159,6.159,0,0,0,17.9,10.7Zm-1.349-2.14a4.889,4.889,0,0,1-3.917,1.849,5.544,5.544,0,0,1,1.4-4.056,5.843,5.843,0,0,1,3.883-2A5.894,5.894,0,0,1,16.54,8.564" transform="translate(5.819 11.044)" fill="#090305"></path></g><g id="WeChat_Pay" data-name="WeChat Pay" transform="translate(1189.906 5066.357)"><rect id="Rectangle_124" data-name="Rectangle 124" width="74.485" height="50.148" rx="3.5" transform="translate(0.311 -0.176)" fill="#fff"></rect><path id="Path_8435" data-name="Path 8435" d="M37.226,21.158a.844.844,0,0,1-1.118-.342l-.055-.121-2.309-5.067a.44.44,0,0,1-.04-.178.423.423,0,0,1,.676-.339l2.725,1.94a1.258,1.258,0,0,0,1.126.129l12.815-5.7A13.562,13.562,0,0,0,40.684,7C33.679,7,28,11.732,28,17.57a9.952,9.952,0,0,0,4.383,7.99.845.845,0,0,1,.355.689,1,1,0,0,1-.045.269l-.571,2.132a1.242,1.242,0,0,0-.068.309.423.423,0,0,0,.423.423.477.477,0,0,0,.244-.079L35.5,27.7a1.331,1.331,0,0,1,.674-.2,1.27,1.27,0,0,1,.373.056,15.007,15.007,0,0,0,4.14.58c7.005,0,12.685-4.733,12.685-10.57a9.152,9.152,0,0,0-1.445-4.9L37.319,21.1Z" transform="translate(-1.049 -1.465)" fill="#1aad19" fill-rule="evenodd"></path><path id="Path_8436" data-name="Path 8436" d="M64.63,41.521l1.27,3.427c.132.384.276.839.372,1.186H66.3c.108-.348.228-.791.372-1.211l1.15-3.4h1.114L67.35,45.655c-.755,1.989-1.27,3.008-1.989,3.631a3.054,3.054,0,0,1-1.076.628c-.086-.155-.482-.831-.482-.831a2.789,2.789,0,0,0,.923-.515,3.2,3.2,0,0,0,.887-1.175.754.754,0,0,0,.084-.252.917.917,0,0,0-.072-.275L63.48,41.521Zm-24.286-.132c1.773,0,2.2,1.21,2.2,2.373v2.169a8.163,8.163,0,0,0,.1,1.39h-.959L41.6,46.59h-.036a2.159,2.159,0,0,1-1.773.863,1.653,1.653,0,0,1-1.774-1.666c0-1.4,1.246-2.169,3.487-2.157v-.12a1.2,1.2,0,0,0-1.318-1.342,2.929,2.929,0,0,0-1.389.359c-.1-.169-.36-.622-.36-.622A3.6,3.6,0,0,1,40.344,41.389Zm19.733,0c1.773,0,2.2,1.21,2.2,2.373v2.169a8.165,8.165,0,0,0,.1,1.39h-.959l-.084-.731H61.3a2.16,2.16,0,0,1-1.773.863,1.653,1.653,0,0,1-1.774-1.666c0-1.4,1.246-2.169,3.487-2.157v-.12a1.2,1.2,0,0,0-1.318-1.342,2.928,2.928,0,0,0-1.389.359c-.1-.169-.36-.622-.36-.622A3.6,3.6,0,0,1,60.077,41.389ZM27.932,39.112a4.328,4.328,0,0,1,1.917.36s-.319.554-.449.765a3.981,3.981,0,0,0-1.432-.249,3,3,0,0,0-3.151,3.331,2.936,2.936,0,0,0,3.1,3.247,4.479,4.479,0,0,0,1.49-.246c.1.166.427.737.427.737a5.175,5.175,0,0,1-2.133.384,3.775,3.775,0,0,1-3.99-4.086A4.019,4.019,0,0,1,27.932,39.112ZM20.1,41.389a2.457,2.457,0,0,1,2.4,2.732,3.976,3.976,0,0,1-.036.491H18.382a1.858,1.858,0,0,0,1.989,2.013,3.95,3.95,0,0,0,1.39-.215c.1.16.4.67.4.67a4.7,4.7,0,0,1-1.929.359,2.693,2.693,0,0,1-2.852-2.924C17.376,42.767,18.406,41.389,20.1,41.389Zm25.735-1.534v1.666h1.51v.8h-1.51v3.127c0,.719.2,1.126.791,1.126.086,0,.165,0,.238-.01.124.208.421.729.421.729a2.587,2.587,0,0,1-.934.144A1.461,1.461,0,0,1,45.208,47a2.148,2.148,0,0,1-.407-1.51V42.324h-.9v-.8h.9V39.855Zm7.991-.671a3.319,3.319,0,0,1,2.265.671,2.171,2.171,0,0,1,.707,1.69,2.378,2.378,0,0,1-.623,1.726,3.347,3.347,0,0,1-2.469.887,3.6,3.6,0,0,1-.839-.072v3.235H51.822V39.34A12.1,12.1,0,0,1,53.823,39.185Zm-45.72.06.959,4.086c.24,1.006.455,2.013.6,2.792h.024c.132-.8.384-1.761.659-2.8l1.078-4.074h1.09l.983,4.1c.228.959.443,1.917.563,2.768h.024c.168-.887.4-1.786.647-2.792L15.8,39.244h1.066l-2.289,8.077H13.483l-1.018-4.206a24.321,24.321,0,0,1-.527-2.636h-.024a25.207,25.207,0,0,1-.623,2.636l-1.15,4.206H9.049L7,39.244Zm24.418-.431v3.619h.024a1.956,1.956,0,0,1,.755-.743,2.171,2.171,0,0,1,1.079-.3c.779,0,2.025.479,2.025,2.48v3.451H35.348V43.99c0-.935-.348-1.726-1.342-1.726a1.515,1.515,0,0,0-1.414,1.055,1.277,1.277,0,0,0-.072.5v3.5H31.466V38.813Zm6.554,6.854a.933.933,0,0,0,.995,1.007,1.443,1.443,0,0,0,1.4-.971,1.1,1.1,0,0,0,.06-.336V44.361C40.38,44.337,39.074,44.541,39.074,45.667Zm19.733,0a.933.933,0,0,0,.995,1.007,1.443,1.443,0,0,0,1.4-.971,1.1,1.1,0,0,0,.06-.336V44.361C60.113,44.337,58.807,44.541,58.807,45.667ZM20.012,42.144a1.748,1.748,0,0,0-1.618,1.714h3.08A1.5,1.5,0,0,0,20.012,42.144Zm33.835-2.133a4.383,4.383,0,0,0-.983.084v3.14a3.5,3.5,0,0,0,.863.084c1.258,0,2.025-.611,2.025-1.726C55.752,40.527,55,40.011,53.847,40.011Z" transform="translate(1.372 -5.132)" fill="#514f50" fill-rule="evenodd"></path></g><g id="AliPay" transform="translate(1305.017 5050.88)"><rect id="Rectangle_125" data-name="Rectangle 125" width="82.223" height="50.148" rx="3.5" transform="translate(-2.664 0)" fill="#fff"></rect><g id="Group_464" data-name="Group 464" transform="translate(5.8 16.843)" clip-path="url(#clip-path)"><path id="Path_8437" data-name="Path 8437" d="M77.821,25.143l.015-.017H75.4l-1.541,5.34h-.082l-1.769-5.34h-2.9l3.488,8.813-1.457,2.686v.065h2.276Z" transform="translate(-12.541 -20.603)"></path><path id="Path_8438" data-name="Path 8438" d="M47.986,25.126H45.4v8.781h2.588Z" transform="translate(-9.752 -20.603)"></path><path id="Path_8439" data-name="Path 8439" d="M67.51,31.687V28.018c0-2-1.18-3.1-3.26-3.1a12.167,12.167,0,0,0-3.916.737l.458,2.016a7.641,7.641,0,0,1,2.9-.982c.851,0,1.229.606,1.229,1.541V28.3c-2.965.557-3.883.868-4.455,1.442a2.37,2.37,0,0,0-.606,1.736A2.507,2.507,0,0,0,62.4,34.063a4.221,4.221,0,0,0,2.654-1.1l.18.918H67.82Zm-2.588.066a3.1,3.1,0,0,1-1.539.524.969.969,0,0,1-1.016-1.064.921.921,0,0,1,.245-.688,5.1,5.1,0,0,1,2.31-.868Z" transform="translate(-11.453 -20.579)"></path><path id="Path_8440" data-name="Path 8440" d="M54.946,24.922a3.786,3.786,0,0,0-2.523,1.049V25.1H49.836V36.667h2.588V33.8a5.587,5.587,0,0,0,1.507.2,4.391,4.391,0,0,0,4.39-4.734C58.321,26.544,56.814,24.922,54.946,24.922Zm-1.639,7.453a2.82,2.82,0,0,1-.885-.131v-4.75a2.548,2.548,0,0,1,1.539-.557c.967,0,1.736.77,1.736,2.409C55.7,31.442,54.569,32.375,53.307,32.375Z" transform="translate(-10.274 -20.579)"></path><path id="Path_8441" data-name="Path 8441" d="M18.711,20H7.615A2.626,2.626,0,0,0,5,22.637v11.19a2.626,2.626,0,0,0,2.615,2.637h11.1a2.625,2.625,0,0,0,2.614-2.637V22.637A2.623,2.623,0,0,0,18.711,20Z" transform="translate(-5 -20)" fill="#44a0e3"></path><path id="Path_8442" data-name="Path 8442" d="M18.6,30.629c-.652-.221-1.53-.558-2.506-.914a13.4,13.4,0,0,0,1.363-3.471H14.241V25.075h3.942v-.652H14.241V22.473H12.633a.275.275,0,0,0-.282.281v1.667H8.364v.652h3.986v1.169H9.058v.652h6.384a11.541,11.541,0,0,1-.919,2.267c-2.071-.689-4.283-1.248-5.67-.9a3.258,3.258,0,0,0-1.8,1.027c-1.542,1.892-.436,4.767,2.821,4.767A6.888,6.888,0,0,0,15.1,31.185c2.145,1.039,6.391,2.825,6.391,2.825V31.465A17.471,17.471,0,0,1,18.6,30.629ZM9.573,32.952c-2.54,0-3.291-2.017-2.036-3.121a3.176,3.176,0,0,1,1.591-.6,8.481,8.481,0,0,1,4.554,1.241A5.467,5.467,0,0,1,9.573,32.952Z" transform="translate(-5.161 -20.291)" fill="#fff"></path><path id="Path_8443" data-name="Path 8443" d="M34.337,21.989H30.864L26.983,33.538h2.392l.655-2.261h4.111l.623,2.261h3.063Zm-3.767,7.4,1.539-5.323h.065l1.457,5.323Z" transform="translate(-7.586 -20.234)"></path><path id="Path_8444" data-name="Path 8444" d="M43.047,21.524H40.459V33.482h2.588Z" transform="translate(-9.171 -20.179)"></path><path id="Path_8445" data-name="Path 8445" d="M45.175,22.542a1.493,1.493,0,1,0,1.491-1.425A1.395,1.395,0,0,0,45.175,22.542Z" transform="translate(-9.726 -20.131)" fill="#44a0e3"></path></g></g><g id="Group_482" data-name="Group 482" transform="translate(1200.323 4870.815)"><rect id="Rectangle_124-2" data-name="Rectangle 124" width="94.421" height="62.947" rx="3.5" transform="translate(-0.219 0.16)" fill="#fff"></rect><path id="Plaid__company_-Logo.wine" data-name="Plaid_(company)-Logo.wine" d="M37.506,9.21a4.808,4.808,0,0,0-3.065-.755H31.183V18.526H33.62V15.37h1.092a4.133,4.133,0,0,0,2.915-.875,3.415,3.415,0,0,0,1.047-2.612A3.311,3.311,0,0,0,37.506,9.21m-2.856,3.881H33.62V10.734h.926q1.69,0,1.69,1.186,0,1.17-1.585,1.171m8.192-4.636H40.3V18.525h5.486V16.246H42.842Zm7.923,0L46.774,18.525H49.51l.523-1.464H53.5l.478,1.464h2.766L52.783,8.455Zm-.03,6.568,1.047-3.442,1.03,3.442H50.735Zm7.28,3.5h2.541V8.455H58.015Zm12.408-8.183A4.176,4.176,0,0,0,69.212,9.18a5.854,5.854,0,0,0-3.139-.725H62.724v10.07h3.917a4.422,4.422,0,0,0,3.408-1.389,5.208,5.208,0,0,0,1.285-3.684,5.234,5.234,0,0,0-.911-3.11m-4.066,5.9H65.266V10.735h1.106a2.241,2.241,0,0,1,1.794.729,3.065,3.065,0,0,1,.628,2.065q0,2.718-2.437,2.718M10.551,0,2.316,2.157.046,10.439l2.839,2.915L0,16.22l2.136,8.318,8.2,2.291,2.885-2.867,2.839,2.914L24.3,24.72l2.269-8.283-2.838-2.913,2.885-2.866L24.475,2.338,16.274.047,13.39,2.913ZM5.5,3.75,9.836,2.613l1.9,1.948L8.966,7.31Zm9.524.837,1.928-1.915,4.32,1.207-3.525,3.5ZM2.645,9.759,3.84,5.4l3.468,3.56L4.542,11.706l-1.9-1.948Zm16.728-.7,3.525-3.5,1.124,4.382L22.1,11.849ZM10.6,8.984l2.767-2.749,2.721,2.795-2.766,2.749Zm-4.424,4.4,2.766-2.749,2.723,2.795L8.895,16.174Zm8.777.072L17.716,10.7,20.438,13.5l-2.767,2.749ZM2.587,16.943l1.928-1.916,2.721,2.8-3.524,3.5Zm7.938.9L13.292,15.1l2.722,2.795-2.766,2.749Zm8.776.072,2.767-2.749,1.9,1.947L22.771,21.48ZM5.343,23l3.525-3.5,2.723,2.795L9.662,24.206,5.343,23Zm9.536-.683,2.766-2.749,3.468,3.561-4.338,1.136Z" transform="translate(11.64 17.818)" fill="#111" fill-rule="evenodd"></path></g><g id="Group_484" data-name="Group 484" transform="translate(1576.804 4894.299)"><rect id="Rectangle_127" data-name="Rectangle 127" width="82.219" height="54.813" rx="3.5" transform="translate(0 0)" fill="#fff"></rect><path id="venmo-ar21" d="M25.366,21.444a4.283,4.283,0,0,1,.618,2.343c0,2.919-2.491,6.709-4.513,9.372H16.846L15,22.083l4.043-.384.98,7.881c.915-1.49,2.044-3.833,2.044-5.431a4.371,4.371,0,0,0-.384-1.96Zm5.241,4.877c.744,0,2.617-.341,2.617-1.4a.731.731,0,0,0-.788-.767,2.26,2.26,0,0,0-1.83,2.172Zm-.085,2.1a1.573,1.573,0,0,0,1.682,1.81,7.064,7.064,0,0,0,3.342-.915l-.489,3.321a9.12,9.12,0,0,1-3.726.746c-3.5,0-4.768-2.13-4.768-4.792,0-3.45,2.044-7.114,6.259-7.114,2.312,0,3.618,1.3,3.618,3.111,0,2.919-3.745,3.812-5.917,3.833Zm17.588-4.38a10.548,10.548,0,0,1-.129,1.448l-1.214,7.666H42.829l1.107-7.028.085-.788c0-.512-.32-.639-.7-.639a3.2,3.2,0,0,0-1.362.405L40.7,33.166H36.741l1.809-11.48h3.434l.043.917A5.906,5.906,0,0,1,45.412,21.5c2,0,2.7,1.023,2.7,2.558Zm11.688-1.3a5.855,5.855,0,0,1,3.661-1.256c2.022,0,2.733,1.023,2.733,2.558a10.548,10.548,0,0,1-.129,1.448L64.85,33.158H60.9l1.121-7.178.064-.575c0-.576-.32-.7-.7-.7a3.008,3.008,0,0,0-1.341.405l-1.261,8.058H54.839l1.121-7.178.07-.575c0-.576-.32-.7-.7-.7a3.2,3.2,0,0,0-1.362.405L52.71,33.173H48.75l1.808-11.48h3.385l.107.959A5.437,5.437,0,0,1,57.327,21.5a2.632,2.632,0,0,1,2.448,1.256ZM74.02,26.087c0-.937-.234-1.577-.936-1.577-1.554,0-1.873,2.747-1.873,4.153,0,1.067.3,1.726,1,1.726,1.469,0,1.809-2.9,1.809-4.3Zm-6.811,2.407c0-3.621,1.915-7.007,6.322-7.007,3.321,0,4.534,1.96,4.534,4.665,0,3.579-1.895,7.284-6.407,7.284-3.342,0-4.45-2.193-4.45-4.942Z" transform="translate(-5.422 -0.032)" fill="#3d95ce"></path></g></g><g id="Group_638" data-name="Group 638"><path id="Path_8478" data-name="Path 8478" d="M0,7.6A7.6,7.6,0,0,1,7.6,0H83.546a7.6,7.6,0,0,1,7.6,7.6V53.166a7.6,7.6,0,0,1-7.6,7.6H7.6a7.6,7.6,0,0,1-7.6-7.6Z" transform="translate(1346.317 7516.369)" fill="#fff"></path><g id="jcb" transform="translate(1348.075 7517.088)"><g id="Group_479" data-name="Group 479" transform="translate(12.985 5.912)"><path id="Path_8353" data-name="Path 8353" d="M65.656,39.746a9.59,9.59,0,0,1-9.59,9.59H4V11.428a9.59,9.59,0,0,1,9.591-9.592H65.656v37.91Z" transform="translate(-4 -1.837)" fill="#fff"></path><path id="Path_8354" data-name="Path 8354" d="M18.08,24.052c1.487.032,2.983-.066,4.464.051a1.831,1.831,0,0,1,.529,3.294c-.909.49-1.989.183-2.975.269H18.08ZM23.4,19.961a1.7,1.7,0,0,1-1.917,2.053H18.08c.024-1.1-.047-2.293.035-3.335,1.365.038,2.742-.078,4.1.061A1.623,1.623,0,0,1,23.4,19.961ZM31.6,2.666c.064,2.227.009,4.572.027,6.844,0,9.239.009,18.477-.007,27.716a6.878,6.878,0,0,1-6.567,6.54c-3.442.014-6.884,0-10.327.006V29.806c3.751-.019,7.5.039,11.252-.029,1.739-.109,3.644-1.257,3.725-3.171.2-1.922-1.607-3.252-3.328-3.462-.661-.017-.642-.193,0-.269a3.133,3.133,0,0,0,2.447-3.754c-.411-1.789-2.389-2.481-4.033-2.478-3.353-.023-6.708,0-10.061-.01.022-2.607-.045-5.218.036-7.823a6.879,6.879,0,0,1,6.8-6.143H31.6Z" transform="translate(26.603 0.532)" fill="url(#linear-gradient)"></path><path id="Path_8355" data-name="Path 8355" d="M4.957,9.163a6.877,6.877,0,0,1,6.6-6.491c3.429-.011,6.859,0,10.288,0-.009,11.566.019,23.133-.014,34.7a6.877,6.877,0,0,1-6.577,6.4c-3.436.012-6.871,0-10.307.005V29.335a26.964,26.964,0,0,0,10.241.6c2.035-.327,4.262-1.327,4.951-3.438.507-1.806.222-3.707.3-5.56v-4.3H14.545c-.026,2.847.054,5.7-.043,8.542a3.336,3.336,0,0,1-3.538,2.8c-2.044.022-6.1-1.482-6.1-1.482-.01-5.334.059-12.014.088-17.33Z" transform="translate(-1.522 0.531)" fill="url(#linear-gradient-2)"></path><path id="Path_8356" data-name="Path 8356" d="M9.963,18.37c-.31.066-.062-1.056-.142-1.482.021-2.692-.044-5.386.036-8.076A6.88,6.88,0,0,1,16.7,2.668H26.721c-.01,11.566.018,23.133-.014,34.7a6.878,6.878,0,0,1-6.577,6.4c-3.436.013-6.872,0-10.307.005V27.956c2.347,1.925,5.536,2.225,8.459,2.23a28.4,28.4,0,0,0,6.535-.849v-2.9a11.591,11.591,0,0,1-7.921,1.275,4.313,4.313,0,0,1-3.189-4.192,4.432,4.432,0,0,1,2.924-4.71,10.779,10.779,0,0,1,7.393.814c.491.257.988.575.792-.244V17.1a24.565,24.565,0,0,0-11.75-.255,8.624,8.624,0,0,0-3.1,1.522Z" transform="translate(12.557 0.531)" fill="url(#linear-gradient-3)"></path></g></g></g></g><path id="Path_8488" data-name="Path 8488" d="M0,4.661C0,2.087,2.413,0,5.39,0h53.9c2.977,0,5.39,2.087,5.39,4.661V32.624c0,2.574-2.413,4.661-5.39,4.661H5.39C2.413,37.285,0,35.2,0,32.624Z" transform="translate(1220.244 7768.826)" fill="#fff"></path><g id="Rounded" transform="translate(1053.534 7719.8)"><g id="Large" transform="translate(0.343 -0.088)"><g id="large_cb" data-name="large/cb"><path id="Shape" d="M65.3,31.838A4.64,4.64,0,0,0,60.9,27H44.847v9.681H60.9v-.005a4.64,4.64,0,0,0,4.4-4.838Zm0,10.267a4.64,4.64,0,0,0-4.4-4.837H44.847v9.681H60.9v-.006A4.639,4.639,0,0,0,65.3,42.106ZM32.754,37.268v-.587H44.538v-.816c0-4.861-3.592-8.8-8.024-8.8H29.025C24.593,27.065,21,31,21,35.865v2.347c0,4.86,3.593,8.8,8.025,8.8h7.489c4.432,0,8.024-3.94,8.024-8.8v-.945Z" transform="translate(-15.54 -18.599)" fill="#146c9c"></path></g></g></g><g id="google-pay" transform="translate(1101.618 7774.014)"><path id="Path_8422" data-name="Path 8422" d="M12.488,13.272v5.533H10.72V5.141h4.688a4.255,4.255,0,0,1,3.036,1.183,3.791,3.791,0,0,1,1.268,2.884,3.773,3.773,0,0,1-1.268,2.9,4.242,4.242,0,0,1-3.036,1.163h-2.92Zm0-6.449v4.77h2.964a2.345,2.345,0,0,0,1.749-.707,2.387,2.387,0,0,0-1.749-4.065H12.488Z" transform="translate(16.086 13.072)" fill="#1a1a1a"></path><path id="Path_8423" data-name="Path 8423" d="M18.573,6.816a4.4,4.4,0,0,1,3.094,1.04A3.675,3.675,0,0,1,22.8,10.708V16.47H21.109v-1.3h-.077a3.382,3.382,0,0,1-2.921,1.6,3.813,3.813,0,0,1-2.6-.916,2.914,2.914,0,0,1-1.047-2.29,2.77,2.77,0,0,1,1.1-2.308,4.694,4.694,0,0,1,2.949-.859,5.249,5.249,0,0,1,2.593.572v-.4a1.992,1.992,0,0,0-.73-1.554,2.513,2.513,0,0,0-1.706-.64,2.711,2.711,0,0,0-2.344,1.241l-1.557-.974A4.343,4.343,0,0,1,18.573,6.816Zm-2.287,6.793a1.4,1.4,0,0,0,.586,1.145,2.165,2.165,0,0,0,1.374.458,2.828,2.828,0,0,0,1.988-.82,2.557,2.557,0,0,0,.878-1.927,3.629,3.629,0,0,0-2.306-.654,3,3,0,0,0-1.8.516A1.536,1.536,0,0,0,16.286,13.608Z" transform="translate(21.299 15.407)" fill="#1a1a1a"></path><path id="Path_8424" data-name="Path 8424" d="M27.483,6.943l-5.9,13.471H19.756l2.19-4.713L18.065,6.943h1.921l2.805,6.716h.038l2.729-6.716Z" transform="translate(26.321 15.585)" fill="#1a1a1a"></path><path id="Path_8425" data-name="Path 8425" d="M12.894,8.969a9.291,9.291,0,0,0-.136-1.6H5.3V10.4h4.27a3.633,3.633,0,0,1-1.579,2.386v1.963h2.548A7.65,7.65,0,0,0,12.894,8.969Z" transform="translate(8.537 16.183)" fill="#4285f4"></path><path id="Path_8426" data-name="Path 8426" d="M9.415,14.94a7.6,7.6,0,0,0,5.239-1.895l-2.548-1.963a4.81,4.81,0,0,1-7.129-2.49H2.352v2.023A7.911,7.911,0,0,0,9.415,14.94Z" transform="translate(4.425 17.883)" fill="#34a853"></path><path id="Path_8427" data-name="Path 8427" d="M5.467,11.519a4.673,4.673,0,0,1,0-3V6.492H2.842a7.8,7.8,0,0,0,0,7.05Z" transform="translate(3.935 14.956)" fill="#fbbc04"></path><path id="Path_8428" data-name="Path 8428" d="M9.415,7.792A4.308,4.308,0,0,1,12.447,8.97L14.7,6.729A7.625,7.625,0,0,0,9.415,4.685,7.911,7.911,0,0,0,2.352,9.01l2.625,2.023A4.725,4.725,0,0,1,9.415,7.792Z" transform="translate(4.425 12.437)" fill="#ea4335"></path></g><rect id="Rectangle_183" data-name="Rectangle 183" width="78.219" height="48.813" rx="3.5" transform="translate(1625.491 7625.688)" fill="#fff"></rect><path id="Path_8487" data-name="Path 8487" d="M0,4.661C0,2.087,2.413,0,5.39,0h53.9c2.977,0,5.39,2.087,5.39,4.661V32.624c0,2.574-2.413,4.661-5.39,4.661H5.39C2.413,37.285,0,35.2,0,32.624Z" transform="translate(1641.123 7693.265)" fill="#fff"></path><g id="microsoft" transform="translate(1242.474 7777.354)"><path id="Path_8430" data-name="Path 8430" d="M9.612,9.612H0V0H9.612Z" fill="#f1511b"></path><path id="Path_8431" data-name="Path 8431" d="M125.4,9.612h-9.612V0H125.4Z" transform="translate(-105.175)" fill="#80cc28"></path><path id="Path_8432" data-name="Path 8432" d="M9.611,125.44H0v-9.612H9.611Z" transform="translate(0 -105.212)" fill="#00adef"></path><path id="Path_8433" data-name="Path 8433" d="M125.4,125.44h-9.612v-9.612H125.4Z" transform="translate(-105.175 -105.212)" fill="#fbbc09"></path></g><g id="Group_637" data-name="Group 637" transform="translate(-2)"><rect id="Rectangle_186" data-name="Rectangle 186" width="69.219" height="38.813" rx="3.5" transform="translate(1616.489 7524.186)" fill="#fff"></rect><g id="Size_24-2" data-name="Size=24" transform="matrix(0.999, 0.035, -0.035, 0.999, 1627.578, 7525.818)"><path id="Path_8234" data-name="Path 8234" d="M24.458,26.887c5.9.028,11.282-4.854,11.282-10.794A11.065,11.065,0,0,0,24.458,5.109H19.382A10.692,10.692,0,0,0,8.5,16.093,10.86,10.86,0,0,0,19.382,26.887Z" transform="translate(2.005 0.944)" fill="#0079be"></path><path id="Path_8235" data-name="Path 8235" d="M19.057,5.7a9.969,9.969,0,1,0,9.877,9.969A9.924,9.924,0,0,0,19.057,5.7ZM12.8,15.673a6.327,6.327,0,0,1,4.019-5.9V21.569a6.324,6.324,0,0,1-4.019-5.9Zm8.5,5.9V9.776a6.334,6.334,0,0,1,0,11.8Z" transform="translate(2.355 1.249)" fill="#fff"></path><path id="Path_8236" data-name="Path 8236" d="M24.458,26.887c5.9.028,11.282-4.854,11.282-10.794A11.065,11.065,0,0,0,24.458,5.109H19.382A10.692,10.692,0,0,0,8.5,16.093,10.86,10.86,0,0,0,19.382,26.887Z" transform="translate(2.005 0.944)" fill="#006aa7"></path><path id="Path_8237" data-name="Path 8237" d="M19.057,5.7a9.969,9.969,0,1,0,9.877,9.969A9.924,9.924,0,0,0,19.057,5.7ZM12.8,15.673a6.327,6.327,0,0,1,4.019-5.9V21.569a6.324,6.324,0,0,1-4.019-5.9Zm8.5,5.9V9.776a6.334,6.334,0,0,1,0,11.8Z" transform="translate(2.355 1.249)" fill="#fff"></path></g></g><g id="Group_577" data-name="Group 577" transform="translate(883.914 7548.444)"><g id="EPS" transform="translate(756.369 86.56)"><path id="Path_8263" data-name="Path 8263" d="M33.723,28.544a5.953,5.953,0,1,1,5.953,6.076H36.7v6.51H33.723V28.544ZM36.7,31.556h2.986a3,3,0,0,0,3-3.023,2.992,2.992,0,1,0-5.983,0Zm17.84-4.531H50.661a.78.78,0,0,1-.782-.78.81.81,0,0,1,.782-.815h5.9V22.493h-5.9a3.766,3.766,0,0,0,0,7.531h3.822a.778.778,0,0,1,.782.779.757.757,0,0,1-.782.753h-8.2a5.742,5.742,0,0,1-2.746,3.063H54.536a3.8,3.8,0,0,0,0-7.595ZM41.59,38.219a.185.185,0,0,1-.2-.189.269.269,0,0,1,.284-.272.176.176,0,0,1,.191.189A.267.267,0,0,1,41.59,38.219Zm.9,0a.19.19,0,0,1-.209-.192.271.271,0,0,1,.288-.268.183.183,0,0,1,.191.192A.272.272,0,0,1,42.495,38.219Zm.523.293-.269,1.538a1.245,1.245,0,0,1-1.324,1.133.869.869,0,0,1-.9-1.132l.269-1.539h.415l-.269,1.538c-.082.479.131.752.535.752a.837.837,0,0,0,.856-.751l.269-1.539Zm.816,1.063.187-1.063h-.385l-.46,2.617h.363l.071-.277a.616.616,0,0,0,.583.326,1.089,1.089,0,0,0,1.133-1.154.725.725,0,0,0-.785-.783A.947.947,0,0,0,43.835,39.575Zm.366,1.24a.452.452,0,0,1-.471-.509.753.753,0,0,1,.74-.7.442.442,0,0,1,.468.5A.744.744,0,0,1,44.2,40.815Zm1.882-.452c-.015.255.183.464.52.464a.9.9,0,0,0,.568-.2l.209.244a1.3,1.3,0,0,1-.849.316.766.766,0,0,1-.841-.811,1.128,1.128,0,0,1,1.159-1.139c.595,0,.931.362.729,1.128Zm1.182-.319c.03-.319-.157-.449-.468-.449a.648.648,0,0,0-.651.449Zm1.343-.766-.019.246a.689.689,0,0,1,.595-.286.588.588,0,0,1,.426.158l-.232.34a.406.406,0,0,0-.307-.113.578.578,0,0,0-.587.5l-.176,1h-.385l.325-1.851Zm3.052,1.464-.194-1.464h-.333l-.707,1.464-.191-1.464H49.8l.325,1.851h.449l.322-.614.3-.607.183,1.221h.453l.965-1.851h-.43Zm2.148.085c-.337,0-.535-.208-.52-.464h1.5c.2-.766-.135-1.128-.729-1.128a1.128,1.128,0,0,0-1.159,1.139.766.766,0,0,0,.841.811,1.3,1.3,0,0,0,.849-.316l-.209-.244A.9.9,0,0,1,53.807,40.827ZM54,39.6c.31,0,.5.13.468.449H53.351A.648.648,0,0,1,54,39.6Zm1.5-.821a.192.192,0,0,0,.2.2.274.274,0,0,0,.288-.283.189.189,0,0,0-.194-.2A.28.28,0,0,0,55.5,38.774Zm.34.5-.325,1.851h-.385l.325-1.851Zm1.709.458a.559.559,0,0,0-.456-.174c-.254,0-.434.087-.434.249,0,.136.146.193.363.211.337.03.767.143.677.623-.064.347-.408.551-.886.551a.881.881,0,0,1-.782-.343l.251-.275a.747.747,0,0,0,.6.275c.183,0,.4-.068.434-.241s-.112-.23-.382-.257c-.314-.03-.658-.147-.658-.5,0-.464.5-.626.871-.626a.831.831,0,0,1,.666.249Zm1.04.539.176-1h-.385l-.176,1c-.1.562.172.889.625.889a.952.952,0,0,0,.688-.305l-.026.268h.348l.325-1.851h-.385l-.168.97a.655.655,0,0,1-.613.563C58.674,40.811,58.532,40.592,58.588,40.275Zm3.265.854.176-.991c.056-.321-.052-.533-.4-.533a.652.652,0,0,0-.617.554l-.168.969h-.385l.325-1.851h.351l-.026.27a.968.968,0,0,1,.673-.3c.449,0,.741.315.64.885l-.176.994Zm1.306.255c-.026.255.168.359.494.359a.646.646,0,0,0,.662-.568l.056-.318a.881.881,0,0,1-.7.331.741.741,0,0,1-.8-.8,1.108,1.108,0,0,1,1.148-1.154.59.59,0,0,1,.572.335l.064-.295h.374L64.7,41.184a1.046,1.046,0,0,1-1.114.925c-.569,0-.883-.278-.8-.724Zm.108-1.067a.474.474,0,0,0,.5.509c.8,0,1.01-1.234.213-1.234A.7.7,0,0,0,63.267,40.317Z" transform="translate(-16.39 -11.931)" fill="#71706f" fill-rule="evenodd"></path><path id="Path_8264" data-name="Path 8264" d="M18.717,8.531a5.023,5.023,0,0,1,5.062,4.982v1.4a.363.363,0,0,1-.338.356H21.578a.355.355,0,0,1-.33-.356v-1.4a2.531,2.531,0,0,0-5.061,0v1.4a.366.366,0,0,1-.341.356H13.984a.353.353,0,0,1-.327-.356v-1.5s0-.007,0-.011a.173.173,0,0,1,0-.023A5.024,5.024,0,0,1,18.717,8.531Zm.014,22.688a6.056,6.056,0,0,1-5.814-4.661,8.933,8.933,0,0,1-.185-1.448,9.592,9.592,0,0,1,.175-1.457A5.993,5.993,0,0,1,24.728,25.1v1.465h-8.77a3.005,3.005,0,0,0,2.773,1.6h7.884l.011-8.636a2.338,2.338,0,0,0-2.32-2.341H13.131a2.31,2.31,0,0,0-2.321,2.309V30.761a2.365,2.365,0,0,0,2.321,2.373H24.305a2.317,2.317,0,0,0,2.285-1.915Zm-.013-9.3a3.22,3.22,0,0,0-2.77,1.7h5.539A3.22,3.22,0,0,0,18.718,21.924Z" transform="translate(-10.81 -8.531)" fill="#c8036f" fill-rule="evenodd"></path></g></g><g id="Group_570" data-name="Group 570" transform="translate(876.134 7598.653)"><g id="giropay" transform="translate(770.417 94.612)"><path id="Path_8320" data-name="Path 8320" d="M18.52,9.273c0,1.432-.769,2.613-2.206,2.613a1.676,1.676,0,0,1-1.532-.786h-.019v2.623h-1.67V6.946h1.54v.871h.019a1.9,1.9,0,0,1,1.8-.984,2.251,2.251,0,0,1,2.069,2.419C18.521,9.259,18.521,9.266,18.52,9.273Z" transform="translate(16.266 9.194)" fill="#fff"></path><path id="Path_8321" data-name="Path 8321" d="M20.673,10.635a5.932,5.932,0,0,0,.089,1.14h-1.53c-.009-.259-.038-.51-.038-.76h-.019a1.656,1.656,0,0,1-1.53.871c-.956,0-1.808-.473-1.808-1.521,0-1.474,1.6-1.65,2.5-1.65a4.921,4.921,0,0,1,.778.064c-.01-.658-.5-.834-1.1-.834a3.158,3.158,0,0,0-1.54.358l-.029-1.131a5,5,0,0,1,1.93-.343c1.235,0,2.3.527,2.3,2Z" transform="translate(19.66 9.194)" fill="#fff"></path><path id="Path_8322" data-name="Path 8322" d="M16.452,6.834a1.9,1.9,0,0,0-1.8.984h-.019V6.946h-1.54v6.776h1.67V11.1h.019a1.677,1.677,0,0,0,1.532.786c1.437,0,2.206-1.185,2.206-2.613a2.25,2.25,0,0,0-2.048-2.437Zm7.623,3.8v-1.8c0-1.474-1.066-2-2.3-2a5,5,0,0,0-1.93.343l.029,1.131a3.158,3.158,0,0,1,1.54-.358c.6,0,1.094.179,1.1.834a4.921,4.921,0,0,0-.778-.064c-.895,0-2.5.179-2.5,1.65,0,1.047.853,1.521,1.808,1.521a1.656,1.656,0,0,0,1.53-.871H22.6c0,.25.029.5.038.76h1.527A5.922,5.922,0,0,1,24.075,10.633Z" transform="translate(16.266 9.194)" fill="#0b3677"></path><path id="Path_8323" data-name="Path 8323" d="M42.286,14.709l-.248.626c-.474,1.213-.836,2.391-2.366,2.391a4.878,4.878,0,0,1-1.039-.111l.112-1.271a1.961,1.961,0,0,0,.659.1.848.848,0,0,0,.844-.668l-1.957-4.94h1.8l1.039,3.152h.019l.991-3.152h1.67Zm-5.933.962c-.009-.259-.038-.51-.038-.76H36.3a1.657,1.657,0,0,1-1.53.871c-.956,0-1.808-.473-1.808-1.521,0-1.474,1.6-1.65,2.5-1.65a4.939,4.939,0,0,1,.778.064c-.01-.659-.5-.834-1.1-.834a3.143,3.143,0,0,0-1.54.358L33.56,11.07a5,5,0,0,1,1.93-.343c1.235,0,2.3.527,2.3,2v1.8a5.867,5.867,0,0,0,.089,1.14Zm-6.325.111A1.676,1.676,0,0,1,28.5,15h-.019v2.621h-1.67V10.84h1.54v.871h.019a1.9,1.9,0,0,1,1.8-.984,2.251,2.251,0,0,1,2.068,2.42c0,.005,0,.011,0,.016,0,1.428-.768,2.613-2.2,2.613Zm-4.8,5.816H5.338a1.913,1.913,0,0,1-1.911-1.909V7.01A1.911,1.911,0,0,1,5.338,5.1H25.225ZM43.4,3.675H5.338A3.336,3.336,0,0,0,2,7.009V19.688a3.339,3.339,0,0,0,3.338,3.335H43.4a3.338,3.338,0,0,0,3.338-3.335V7.01A3.335,3.335,0,0,0,43.4,3.675Z" transform="translate(2.546 5.293)" fill="#0b3677"></path><path id="Path_8324" data-name="Path 8324" d="M15.784,10.607a1.132,1.132,0,0,1-1.022-1.233c0-.724.409-1.26,1.022-1.26A1.068,1.068,0,0,1,16.8,9.231c0,.026,0,.053-.006.079,0,.768-.38,1.3-1.01,1.3Zm.668-3.773a1.9,1.9,0,0,0-1.8.984h-.019V6.946h-1.54v6.776h1.67V11.1h.019a1.676,1.676,0,0,0,1.532.786c1.437,0,2.206-1.185,2.206-2.613a2.251,2.251,0,0,0-2.048-2.437Z" transform="translate(16.266 9.194)" fill="#fff"></path><path id="Path_8325" data-name="Path 8325" d="M18.082,10.768c-.39,0-.687-.194-.687-.528,0-.464.447-.64,1.012-.64.25,0,.491.017.7.027A1.088,1.088,0,0,1,18.082,10.768Zm2.588-.139v-1.8c0-1.474-1.066-2-2.3-2a4.992,4.992,0,0,0-1.93.343L16.468,8.3a3.143,3.143,0,0,1,1.54-.358c.6,0,1.094.179,1.1.834a4.939,4.939,0,0,0-.778-.064c-.895,0-2.5.179-2.5,1.65,0,1.047.853,1.521,1.808,1.521a1.659,1.659,0,0,0,1.53-.871h.019c0,.25.029.5.038.76h1.53A5.848,5.848,0,0,1,20.67,10.629Z" transform="translate(19.66 9.194)" fill="#fff"></path><path id="Path_8326" data-name="Path 8326" d="M23.746,6.881l-1.521,3.868-.248.626c-.474,1.213-.836,2.391-2.366,2.391a4.89,4.89,0,0,1-1.039-.111l.112-1.271a1.939,1.939,0,0,0,.659.1.848.848,0,0,0,.844-.668L18.23,6.878h1.8l1.039,3.152h.019l.991-3.152Z" transform="translate(22.619 9.254)" fill="#fff"></path><path id="Path_8327" data-name="Path 8327" d="M9.056,6.942H7.544v.871H7.526a1.887,1.887,0,0,0-1.642-.984c-1.5,0-2.179,1.074-2.179,2.512A2.17,2.17,0,0,0,5.857,11.77a1.879,1.879,0,0,0,1.623-.825H7.5v.26c0,.946-.519,1.4-1.484,1.4a3.329,3.329,0,0,1-1.633-.4L4.3,13.522a5.633,5.633,0,0,0,1.846.306c1.948,0,2.912-.64,2.912-2.623ZM5.429,9.315c0-.658.325-1.205.946-1.205a1.058,1.058,0,0,1,1.07,1.043c0,.032,0,.064,0,.1a1.128,1.128,0,0,1-1.007,1.238l-.06,0C5.874,10.492,5.429,10.065,5.429,9.315Z" transform="translate(4.636 9.194)" fill="#e20613"></path><path id="Path_8328" data-name="Path 8328" d="M6.6,12.82H8.27V7.989H6.6ZM8.269,5.979H6.6V7.2h1.67Z" transform="translate(8.235 8.143)" fill="#e20613"></path><path id="Path_8329" data-name="Path 8329" d="M11.386,6.884a3.634,3.634,0,0,0-.565-.055,1.49,1.49,0,0,0-1.432,1H9.371V6.94H7.85v4.831h1.67V9.731c0-.946.437-1.511,1.216-1.511a1.914,1.914,0,0,1,.565.055Z" transform="translate(9.781 9.194)" fill="#e20613"></path><path id="Path_8330" data-name="Path 8330" d="M12.271,11.885a2.533,2.533,0,1,0-.285.015A2.318,2.318,0,0,0,12.271,11.885ZM12,10.718c-.77,0-1.085-.639-1.085-1.353S11.231,8,12,8s1.085.64,1.085,1.363S12.77,10.718,12,10.718Z" transform="translate(11.774 9.182)" fill="#e20613"></path></g></g><g id="Group_636" data-name="Group 636" transform="translate(-91.036 250.703)"><rect id="Rectangle_185" data-name="Rectangle 185" width="55.219" height="33.813" rx="3.5" transform="translate(1661.309 7506.619)" fill="#fff"></rect><g id="Group_571" data-name="Group 571" transform="translate(762.105 7415.119)"><g id="ideal" transform="translate(916.874 98.73)"><path id="Path_8332" data-name="Path 8332" d="M27.406,11.655c0,6.456-4.183,9.7-10.813,9.7H5.077V2H16.594C24.41,2,27.406,6.27,27.406,11.655Z" transform="translate(-5.076 -2)" fill="#fff"></path><path id="Path_8333" data-name="Path 8333" d="M16.593,20.236H6.191V3.117h10.4c5.993,0,9.7,2.724,9.7,8.538C26.289,17.31,22.874,20.236,16.593,20.236ZM16.593,2H5.076V21.351H16.593c6.63,0,10.813-3.24,10.813-9.7C27.406,6.27,24.411,2,16.593,2Z" transform="translate(-5.076 -2)"></path><path id="Path_8334" data-name="Path 8334" d="M9.965,8.77H6.635V14.7h3.33Z" transform="translate(-4.122 2.147)"></path><path id="Path_8335" data-name="Path 8335" d="M8.452,5.632A2.069,2.069,0,1,1,6.382,7.7,2.069,2.069,0,0,1,8.452,5.632Z" transform="translate(-4.276 0.225)"></path><path id="Path_8336" data-name="Path 8336" d="M17.333,8.106h-.057l-.318,1.087h.693Zm0,0h-.057l-.318,1.087h.693Zm-.057,0-.318,1.087h.693l-.318-1.087ZM18.15,10.9l-.217-.746H16.679l-.215.746h-1l1.159-3.852h1.366L19.151,10.9Zm-3.1,0H12.673V7.049h2.3v.961H13.632v.445H14.9v.958H13.632v.528h1.414Zm4.583,0V7.049h.961V9.94H22.01c-.39-5.247-4.518-6.382-8.271-6.382h-4V7.051h.594a1.7,1.7,0,0,1,1.749,1.908A1.7,1.7,0,0,1,10.335,10.9H9.741v6.986h4c6.1,0,8.222-2.832,8.3-6.988Zm-9.3-2.89H9.739V9.94h.593c.409,0,.789-.119.789-.982C11.121,8.117,10.7,8.009,10.332,8.009Z" transform="translate(-2.22 -1.045)" fill="#d50072"></path></g></g></g><g id="Group_572" data-name="Group 572" transform="translate(649.418 7413.669)"><path id="Path_8479" data-name="Path 8479" d="M0,5.429C0,2.431,2.739,0,6.118,0H67.3c3.379,0,6.118,2.431,6.118,5.429V38c0,3-2.739,5.429-6.118,5.429H6.118C2.739,43.433,0,41,0,38Z" transform="translate(883.157 78.463)" fill="#fff"></path><g id="Group_458" data-name="Group 458" transform="translate(969.394 99.32)"><g id="Group_457" data-name="Group 457" transform="translate(-71 -14)"><path id="Path_8377" data-name="Path 8377" d="M172.091,93.093c0-7.736-9.612-14.042-21.471-14.042s-21.47,6.307-21.47,14.042c0,.2,0,.753,0,.823,0,8.207,8.4,14.854,21.47,14.854,13.149,0,21.473-6.645,21.473-14.853v-.824" transform="translate(-129.148 -79.051)" fill="#253e8b"></path><path id="Path_8378" data-name="Path 8378" d="M173.129,94.938c0,7.294-9.243,13.206-20.644,13.206s-20.644-5.913-20.644-13.206,9.243-13.207,20.644-13.207,20.644,5.913,20.644,13.207" transform="translate(-131.008 -80.903)" fill="#00aeef"></path><path id="Path_8379" data-name="Path 8379" d="M176.136,100.289c-.011.021-.216.234-.083.4a2.58,2.58,0,0,0,2.35.426,6.791,6.791,0,0,0,2.135-1.351,8.541,8.541,0,0,1,2.437-1.554,2.785,2.785,0,0,1,1.777-.046,5.441,5.441,0,0,1,1.62.945c1.412,1.062,7.092,6.02,8.073,6.877a49,49,0,0,1,9.077-2.921,11.251,11.251,0,0,0-4.311-6.78c-3.272,1.375-7.271,2.093-11.181.182a10.816,10.816,0,0,0-4.224-.96c-3.1.071-4.447,1.415-5.869,2.836l-1.8,1.941" transform="translate(-161.514 -90.42)" fill="#fff"></path><path id="Path_8380" data-name="Path 8380" d="M164.053,107.3c-.066-.059-6.679-5.845-8.176-6.97a3.666,3.666,0,0,0-1.856-.881,2.5,2.5,0,0,0-.882.085,7.984,7.984,0,0,0-2.418,1.44,6.9,6.9,0,0,1-2.36,1.459,3.823,3.823,0,0,1-2.6-.39,1.155,1.155,0,0,1-.431-.474.8.8,0,0,1,.221-.864l1.824-1.974c.213-.211.425-.423.644-.632a11.909,11.909,0,0,0-1.662.375,7.256,7.256,0,0,1-1.94.362,18.3,18.3,0,0,1-1.98-.311,29.512,29.512,0,0,1-5.265-1.9,11.673,11.673,0,0,0-4.83,7c.373.1.974.278,1.226.333,5.869,1.3,7.7,2.649,8.03,2.931a1.943,1.943,0,0,1,3.046.179,2.218,2.218,0,0,1,1.4-.492,2.624,2.624,0,0,1,.84.147,1.931,1.931,0,0,1,1.182,1.067,1.953,1.953,0,0,1,.817-.173,2.45,2.45,0,0,1,.976.215,2.084,2.084,0,0,1,1.153,2.328,2.134,2.134,0,0,1,.233-.012,2.331,2.331,0,0,1,2.327,2.328,2.3,2.3,0,0,1-.279,1.1,3.691,3.691,0,0,0,2.021.541,1.291,1.291,0,0,0,.946-.412c.058-.082.12-.179.063-.248l-1.656-1.84s-.273-.259-.182-.358.262.045.381.144c.843.7,1.873,1.766,1.873,1.766.017.012.086.146.466.215a1.723,1.723,0,0,0,1.308-.306,1.954,1.954,0,0,0,.288-.295c-.006,0-.012.013-.018.016a.882.882,0,0,0-.047-1.091l-1.934-2.171s-.275-.256-.182-.359.262.046.384.146c.611.512,1.476,1.38,2.306,2.192a1.571,1.571,0,0,0,1.855-.064,1.329,1.329,0,0,0,.686-1.212,1.379,1.379,0,0,0-.408-.807l-2.641-2.656s-.279-.238-.18-.359c.081-.1.262.045.381.144.841.7,3.12,2.793,3.12,2.793a1.6,1.6,0,0,0,1.792-.036,1.2,1.2,0,0,0,.59-.947,1.4,1.4,0,0,0-.445-1.076" transform="translate(-131.353 -91.186)" fill="#fff"></path><path id="Path_8381" data-name="Path 8381" d="M171.94,133.291a5.813,5.813,0,0,0-.916.2c-.033-.022.024-.186.063-.281s.579-1.717-.736-2.281a1.55,1.55,0,0,0-1.833.274c-.056.058-.08.053-.087-.021a1.45,1.45,0,0,0-1.018-1.348,1.991,1.991,0,0,0-2.242.8,1.434,1.434,0,1,0-.426,1.221c.008.007.012.021.007.048a1.9,1.9,0,0,0,1.184,2.178,1.416,1.416,0,0,0,1.389-.215c.114-.081.133-.047.116.06a1.352,1.352,0,0,0,1.014,1.451,1.285,1.285,0,0,0,1.505-.279c.128-.117.163-.1.169.082a1.812,1.812,0,1,0,1.811-1.893" transform="translate(-152.051 -113.814)" fill="#fff"></path><path id="Path_8382" data-name="Path 8382" d="M150.966,111.857a1.671,1.671,0,0,1-1.679-1.6c0-.077-.01-.283-.182-.283a.321.321,0,0,0-.205.108,1.181,1.181,0,0,1-.824.373,1.446,1.446,0,0,1-.544-.118c-.959-.388-.973-1.046-.934-1.311a.241.241,0,0,0-.034-.2l-.059-.052h-.059a.289.289,0,0,0-.167.068,1.4,1.4,0,0,1-.814.289,1.26,1.26,0,0,1-.454-.089,1.759,1.759,0,0,1-1.1-2.039.174.174,0,0,0-.056-.167l-.089-.074-.083.08a1.311,1.311,0,1,1,.389-1.109l.045.352.193-.3a1.82,1.82,0,0,1,2.094-.745,1.325,1.325,0,0,1,.928,1.234c.013.17.135.179.159.179a.212.212,0,0,0,.151-.08,1.324,1.324,0,0,1,.964-.406,1.839,1.839,0,0,1,.722.162c1.234.529.674,2.1.668,2.113-.106.26-.111.375-.011.441l.048.023h.036a.863.863,0,0,0,.238-.063,2.126,2.126,0,0,1,.658-.145h0a1.682,1.682,0,1,1,0,3.365Zm13.068-7.553c-2.037-1.777-6.744-5.869-8.019-6.827a5.6,5.6,0,0,0-1.661-.967,2.745,2.745,0,0,0-.817-.127,3.424,3.424,0,0,0-1.035.174,8.518,8.518,0,0,0-2.439,1.544l-.041.033a6.712,6.712,0,0,1-2.082,1.325,3.523,3.523,0,0,1-.771.086,1.976,1.976,0,0,1-1.449-.465c-.036-.047-.013-.121.071-.228l.012-.015,1.792-1.931c1.4-1.4,2.728-2.728,5.78-2.8l.152,0a10.816,10.816,0,0,1,4.01.95A12.422,12.422,0,0,0,163,96.366a14.273,14.273,0,0,0,6-1.438c-.233-.2-.476-.387-.726-.574a13.23,13.23,0,0,1-5.27,1.2,11.648,11.648,0,0,1-5.117-1.231,11.512,11.512,0,0,0-4.366-1.032l-.172,0a7.579,7.579,0,0,0-4.978,1.768,9.815,9.815,0,0,0-2.483.453,6.781,6.781,0,0,1-1.751.335c-.225,0-.628-.021-.665-.022a34.089,34.089,0,0,1-6.293-1.743c-.256.181-.5.368-.743.559a31.116,31.116,0,0,0,6.823,1.972c.28.019.579.051.877.051a7.46,7.46,0,0,0,1.975-.366c.379-.108.8-.224,1.241-.308-.118.116-.236.233-.354.35l-1.82,1.969a.914.914,0,0,0-.25,1.006,1.279,1.279,0,0,0,.48.532,3.79,3.79,0,0,0,1.932.491,3.55,3.55,0,0,0,.771-.081,6.992,6.992,0,0,0,2.412-1.484,8.019,8.019,0,0,1,2.37-1.418,2.718,2.718,0,0,1,.66-.091,1.282,1.282,0,0,1,.172.011,3.547,3.547,0,0,1,1.793.855c1.495,1.122,8.107,6.907,8.172,6.965a1.273,1.273,0,0,1,.4.971,1.06,1.06,0,0,1-.528.844,1.612,1.612,0,0,1-.867.269,1.439,1.439,0,0,1-.767-.221c-.024-.021-2.29-2.1-3.123-2.8a.7.7,0,0,0-.393-.209.216.216,0,0,0-.173.082c-.13.162.016.385.19.533l2.646,2.659a1.257,1.257,0,0,1,.365.718,1.206,1.206,0,0,1-.628,1.1,1.706,1.706,0,0,1-.938.31,1.368,1.368,0,0,1-.755-.23l-.379-.375c-.694-.683-1.41-1.388-1.934-1.826a.7.7,0,0,0-.4-.2.224.224,0,0,0-.167.07c-.059.066-.1.186.048.384a1.272,1.272,0,0,0,.133.149l1.932,2.17a.741.741,0,0,1,.044.925l-.069.086a1.845,1.845,0,0,1-.179.174,1.545,1.545,0,0,1-.944.3,1.447,1.447,0,0,1-.261-.023.656.656,0,0,1-.382-.161l-.023-.024c-.105-.109-1.079-1.1-1.885-1.775a.662.662,0,0,0-.375-.2.231.231,0,0,0-.175.079c-.159.174.08.435.181.532l1.648,1.816a.414.414,0,0,1-.063.111c-.059.081-.259.281-.857.356a1.636,1.636,0,0,1-.219.013,3.775,3.775,0,0,1-1.612-.478,2.456,2.456,0,0,0-2.222-3.5h-.088a2.182,2.182,0,0,0-1.247-2.306,2.589,2.589,0,0,0-1.027-.226,2.094,2.094,0,0,0-.753.135,2.068,2.068,0,0,0-1.2-1.021,2.717,2.717,0,0,0-.882-.156,2.326,2.326,0,0,0-1.374.44,2.069,2.069,0,0,0-3.083-.173c-.514-.391-2.547-1.684-7.991-2.92-.263-.059-.867-.233-1.238-.341a8.8,8.8,0,0,0-.14.893s1,.24,1.2.285c5.561,1.235,7.4,2.519,7.71,2.762a2.06,2.06,0,0,0-.161.8,2.084,2.084,0,0,0,2.465,2.05,2.432,2.432,0,0,0,1.572,1.816,2.091,2.091,0,0,0,.743.144,1.922,1.922,0,0,0,.475-.059,2.419,2.419,0,0,0,2.111,1.379,1.842,1.842,0,0,0,.637-.114,2.454,2.454,0,0,0,4.032.778,4.617,4.617,0,0,0,2.079.621,2.658,2.658,0,0,0,.315-.021,1.9,1.9,0,0,0,1.411-.69,1.062,1.062,0,0,0,.087-.141,2.366,2.366,0,0,0,.666.105,2.241,2.241,0,0,0,1.345-.482,1.847,1.847,0,0,0,.793-1.153l0-.017a2.234,2.234,0,0,0,.449.046,2.5,2.5,0,0,0,1.381-.439,1.993,1.993,0,0,0,.992-1.775,2.2,2.2,0,0,0,.454.047,2.384,2.384,0,0,0,1.294-.4,1.889,1.889,0,0,0,.9-1.464,1.964,1.964,0,0,0-.285-1.182,53.5,53.5,0,0,1,8.578-2.686,8.815,8.815,0,0,0-.12-.89,49.217,49.217,0,0,0-9.035,2.936" transform="translate(-131.078 -88.885)" fill="#253e8b"></path></g></g></g></g><g id="Group_634" data-name="Group 634" transform="translate(12 -358.998)"><path id="Path_8484" data-name="Path 8484" d="M0,4.661C0,2.087,2.413,0,5.39,0h53.9c2.977,0,5.39,2.087,5.39,4.661V32.624c0,2.574-2.413,4.661-5.39,4.661H5.39C2.413,37.285,0,35.2,0,32.624Z" transform="translate(1358.404 7702.547)" fill="#fff"></path><g id="logo" transform="translate(1229.186 7565.711)"><path id="Bancontact" d="M145.518,388.931V384.3h1.43c1.039,0,1.708.391,1.708,1.2a1.078,1.078,0,0,1-.51.96,1.148,1.148,0,0,1,.682,1.106c0,.934-.682,1.371-1.741,1.371Zm.92-2.708h.682a.517.517,0,0,0,.6-.583c0-.4-.324-.536-.761-.536h-.516Zm0,1.9h.569c.556,0,.881-.139.881-.576s-.278-.609-.8-.609h-.649Zm4.175.887c-.907,0-1.364-.444-1.364-1.039,0-.656.536-1.04,1.331-1.046a4.153,4.153,0,0,1,.589.053v-.159c0-.4-.232-.6-.675-.6a2.322,2.322,0,0,0-.874.159l-.166-.715a3.281,3.281,0,0,1,1.145-.2,1.285,1.285,0,0,1,1.457,1.41v1.841A3.316,3.316,0,0,1,150.613,389.01Zm.556-.748v-.708a2.224,2.224,0,0,0-.47-.053c-.3,0-.543.119-.543.43,0,.278.2.424.55.424A1.037,1.037,0,0,0,151.169,388.262Zm1.53.669V385.76a4.042,4.042,0,0,1,1.5-.291c.967,0,1.523.477,1.523,1.357v2.105h-.914v-2.039c0-.457-.212-.669-.616-.669a1.389,1.389,0,0,0-.583.119v2.589Zm6.212-3.264-.172.722a2.016,2.016,0,0,0-.748-.166c-.536,0-.828.377-.828,1,0,.682.3,1.033.874,1.033a1.873,1.873,0,0,0,.735-.172l.146.735a2.228,2.228,0,0,1-.953.192,1.772,1.772,0,0,1-.053-3.542A2.551,2.551,0,0,1,158.912,385.667Zm1.974,3.343a1.776,1.776,0,1,1,1.649-1.774A1.608,1.608,0,0,1,160.886,389.01Zm0-.755c.47,0,.715-.391.715-1.02s-.245-1.013-.715-1.013-.722.391-.722,1.013S160.422,388.256,160.886,388.256Zm2.177.675V385.76a4.042,4.042,0,0,1,1.5-.291c.967,0,1.523.477,1.523,1.357v2.105h-.914v-2.039c0-.457-.212-.669-.616-.669a1.388,1.388,0,0,0-.583.119v2.589Zm5.08.079c-.788,0-1.192-.43-1.192-1.3v-1.43h-.45v-.728h.45v-.735l.914-.046v.781h.735v.728h-.735v1.417c0,.384.159.563.457.563a1.6,1.6,0,0,0,.351-.04l.046.735A2.523,2.523,0,0,1,168.143,389.01Zm2.306,0c-.907,0-1.364-.444-1.364-1.039,0-.656.536-1.04,1.331-1.046a4.149,4.149,0,0,1,.589.053v-.159c0-.4-.232-.6-.675-.6a2.323,2.323,0,0,0-.874.159l-.166-.715a3.281,3.281,0,0,1,1.145-.2,1.285,1.285,0,0,1,1.457,1.41v1.841A3.316,3.316,0,0,1,170.449,389.01Zm.556-.748v-.708a2.225,2.225,0,0,0-.47-.053c-.3,0-.543.119-.543.43,0,.278.2.424.55.424A1.037,1.037,0,0,0,171,388.262Zm4.013-2.6-.172.722a2.016,2.016,0,0,0-.748-.166c-.536,0-.828.377-.828,1,0,.682.3,1.033.874,1.033a1.873,1.873,0,0,0,.735-.172l.146.735a2.228,2.228,0,0,1-.953.192,1.772,1.772,0,0,1-.053-3.542A2.551,2.551,0,0,1,175.018,385.667Zm2.009,3.343c-.788,0-1.192-.43-1.192-1.3v-1.43h-.45v-.728h.45v-.735l.914-.046v.781h.735v.728h-.735v1.417c0,.384.159.563.457.563a1.6,1.6,0,0,0,.351-.04l.046.735A2.523,2.523,0,0,1,177.027,389.01Z" transform="translate(0 -223.57)" fill="#1e3764"></path><path id="blue-symbol" d="M151.891,253.163c4.835,0,7.252-3.223,9.669-6.446H145.518v6.446Z" transform="translate(0 -94.754)" fill="url(#linear-gradient-4)"></path><path id="yellow-symbol" d="M407.039,145.517c-4.835,0-7.252,3.223-9.669,6.446h16.043v-6.446Z" transform="translate(-235.809)" fill="url(#linear-gradient-5)"></path></g></g><path id="Path_8485" data-name="Path 8485" d="M0,4.661C0,2.087,2.413,0,5.39,0h53.9c2.977,0,5.39,2.087,5.39,4.661V32.624c0,2.574-2.413,4.661-5.39,4.661H5.39C2.413,37.285,0,35.2,0,32.624Z" transform="translate(1453.404 7338.549)" fill="#fff"></path><g id="Group_635" data-name="Group 635" transform="translate(1454.247 7343.131)"><g id="Group_456" data-name="Group 456" transform="translate(10.292 3.412)"><g id="Group_455" data-name="Group 455" transform="translate(0 0)"><circle id="Ellipse_33" data-name="Ellipse 33" cx="3.172" cy="3.172" r="3.172" transform="translate(7.088 6.344) rotate(-89.628)" fill="#fff"></circle><path id="Path_8370" data-name="Path 8370" d="M37.086,3.355h3.546V23.473H37.086Z" transform="translate(-21.141 -2.317)" fill="#fff"></path><path id="Path_8371" data-name="Path 8371" d="M52.04,18.866h3.546V32.043H52.04Z" transform="translate(-29.402 -10.887)" fill="#fff"></path><path id="Path_8372" data-name="Path 8372" d="M89.385,71.054a6.7,6.7,0,0,0-3.181.8V64.245H82.658V77.779a6.726,6.726,0,1,0,6.726-6.724Zm0,9.962a3.237,3.237,0,1,1,3.237-3.237,3.237,3.237,0,0,1-3.237,3.237Z" transform="translate(-82.658 -63.207)" fill="#fff"></path></g><circle id="Ellipse_34" data-name="Ellipse 34" cx="3.172" cy="3.172" r="3.172" transform="translate(7.088 6.344) rotate(-89.628)" fill="url(#linear-gradient-6)"></circle><path id="Path_8373" data-name="Path 8373" d="M37.086,3.355h3.546V23.473H37.086Z" transform="translate(-21.141 -2.317)"></path><path id="Path_8374" data-name="Path 8374" d="M52.04,18.866h3.546V32.043H52.04Z" transform="translate(-29.402 -10.887)"></path><path id="Path_8375" data-name="Path 8375" d="M89.385,71.054a6.7,6.7,0,0,0-3.181.8V64.245H82.658V77.779a6.726,6.726,0,1,0,6.726-6.724Zm0,9.962a3.237,3.237,0,1,1,3.237-3.237,3.237,3.237,0,0,1-3.237,3.237Z" transform="translate(-82.658 -63.207)"></path></g><path id="Path_8376" data-name="Path 8376" d="M195.176,84.365h4.567l-5.487-7.087,4.976-6.09h-4.143L190.2,77.315V64.248h-3.547V84.365H190.2l0-7.032Z" transform="translate(-147.036 -59.795)"></path></g><path id="Path_8486" data-name="Path 8486" d="M0,4.661C0,2.087,2.455,0,5.483,0H60.309c3.028,0,5.483,2.087,5.483,4.661V32.624c0,2.574-2.455,4.661-5.483,4.661H5.483C2.455,37.285,0,35.2,0,32.624Z" transform="translate(1378.851 7396.549)" fill="#fff"></path><g id="Przelewy24" transform="translate(1384.675 7393.859)"><path id="Path_8391" data-name="Path 8391" d="M10.828,28.585a.924.924,0,0,1,.324.2.935.935,0,0,1,.149.2,1.165,1.165,0,0,1,.132.57.9.9,0,0,1-.014.17s-.007.057-.019.147c-.028.206-.083.593-.137.917-.05.293-.109.534-.109.534a1.531,1.531,0,0,1-.682.936,2.983,2.983,0,0,1-1.3.255l-1.951-.009-.4,2.412H5.82L6.9,28.412H9.714s.076,0,.194,0a3.635,3.635,0,0,1,.491.052A2.342,2.342,0,0,1,10.828,28.585Zm-.659,2.506c.118-.619.208-1.142.208-1.154s0,0,0-.01a.847.847,0,0,0,.006-.189.4.4,0,0,0-.076-.213.545.545,0,0,0-.3-.1,4.809,4.809,0,0,0-.541-.033c-.139,0-.239,0-.239,0l-1.476,0L7.39,31.554l1.629,0a3.342,3.342,0,0,0,.716-.059A.52.52,0,0,0,10.169,31.091Zm8.717-.868-3.693,0-.149.917h2.364l-2.961,2.84-.161.939,3.819,0,.151-.908-2.593,0,3.089-2.953Zm5.009-1.811h.968l-1.084,6.511-.971,0Zm6.1,1.813-.928,0,.472,4.7,1.124,0L32.1,31.632l.331,3.286h1.143l2.045-4.693h-.963L33.23,33.543l-.338-3.32-1.145,0-1.429,3.31Zm-9.023-.062a4.234,4.234,0,0,1,1.141.1c.808.265.919.939.763,1.823l-.135.78-3.153.009a2.519,2.519,0,0,0-.087.7.173.173,0,0,0,0,.031c-.044.453.455.462.609.465h.029l.032,0a5.117,5.117,0,0,0,.906-.035c.543-.061.6-.726.6-.726l1,0-.061.253,0,.006a1.9,1.9,0,0,1-.133.374,2.341,2.341,0,0,1-.239.392,1.684,1.684,0,0,1-.9.556,5.361,5.361,0,0,1-1.374.078,2.327,2.327,0,0,1-.812-.161,1.038,1.038,0,0,1-.628-.917,7.271,7.271,0,0,1,.163-1.556,3.736,3.736,0,0,1,.505-1.537,1.885,1.885,0,0,1,1.074-.582A3.537,3.537,0,0,1,20.966,30.164Zm-1.23,1.811,2.161,0a1.64,1.64,0,0,0,0-.643.358.358,0,0,0-.286-.208,3.946,3.946,0,0,0-1.048-.028.993.993,0,0,0-.522.151.861.861,0,0,0-.224.383Zm8.32-1.707a4.231,4.231,0,0,0-1.141-.1,3.537,3.537,0,0,0-.706.054,1.885,1.885,0,0,0-1.074.582,3.735,3.735,0,0,0-.505,1.537,7.271,7.271,0,0,0-.163,1.556,1.038,1.038,0,0,0,.628.917,2.326,2.326,0,0,0,.812.161,5.363,5.363,0,0,0,1.374-.078,1.685,1.685,0,0,0,.9-.556,2.345,2.345,0,0,0,.239-.393,1.9,1.9,0,0,0,.133-.374l0-.006.061-.253-1,0s-.054.664-.6.726a5.414,5.414,0,0,1-.887.037l-.05,0h-.028c-.153,0-.654-.013-.61-.465a.168.168,0,0,1,0-.031,2.518,2.518,0,0,1,.087-.7l3.153-.009.135-.78C28.974,31.207,28.863,30.531,28.056,30.268Zm-.22,1.709-2.161,0,.085-.343a.861.861,0,0,1,.224-.383.987.987,0,0,1,.522-.151,3.946,3.946,0,0,1,1.048.028.358.358,0,0,1,.286.208A1.643,1.643,0,0,1,27.836,31.978Zm8.9-1.75.621,3.433,1.755-3.435.987.009-2.529,4.906a5.182,5.182,0,0,1-.741,1.114,1.288,1.288,0,0,1-.69.35l-.062.006a1.413,1.413,0,0,1-.486-.006l-.236-.043.146-.877a1.42,1.42,0,0,0,.623-.019c.234-.092.42-.489.42-.489l.118-.2-.914-4.752Zm-23.847.322a2.272,2.272,0,0,1,1.072-.326h.562l-.161.908-.534,0a1.322,1.322,0,0,0-1.252,1.175L12.118,34.9H11.083l.827-4.674h1.032Z" transform="translate(-1.12 -7.742)" fill="#d13239" fill-rule="evenodd"></path><path id="Path_8392" data-name="Path 8392" d="M37.341,19.839l1.2-2.414a33.123,33.123,0,0,1,4.9.3,33.584,33.584,0,0,1,4.3.913l-5.748,3.01a14.307,14.307,0,0,0-3.011-1.374C38.028,19.995,37.341,19.839,37.341,19.839Zm-7.6-1.135.25,1.407a20.613,20.613,0,0,1,2.543-.473,15.617,15.617,0,0,1,3.677.017l.713-2.173s-2.156.144-3.783.447S29.741,18.7,29.741,18.7ZM24.39,22.416l-1.438-.969a27.164,27.164,0,0,1,3.032-1.43c1.729-.69,2.652-.979,2.652-.979l.293,1.374s-1.665.558-2.619,1.01A16.666,16.666,0,0,0,24.39,22.416Zm-3.564,2.435h-3.1s1.209-.927,1.818-1.326c.628-.433,2.109-1.35,2.109-1.35l1.752.82s-.9.57-1.391.932S20.827,24.851,20.827,24.851ZM44.9,26.6l1.018,0,.061-.395s.109-.714.352-.851a1.152,1.152,0,0,1,.347-.111,4.552,4.552,0,0,1,.881-.043h.023a9.679,9.679,0,0,1,.99.068.358.358,0,0,1,.321.466l-.085.622a1.51,1.51,0,0,1-.137.452.887.887,0,0,1-.468.3c-.335.109-1.483.4-1.483.4l-.9.26a2.149,2.149,0,0,0-.864.5,2.072,2.072,0,0,0-.477.939c-.043.2-.281,1.61-.281,1.61l4.869,0,.163-.974-3.852,0,.068-.4s.045-.409.21-.544l.023-.021h0a.88.88,0,0,1,.362-.187c.184-.066.812-.234.812-.234l1.452-.4a2.306,2.306,0,0,0,1.105-.638,3.554,3.554,0,0,0,.432-1.263,5.145,5.145,0,0,0,.019-1.059,1.132,1.132,0,0,0-.593-.686,3.142,3.142,0,0,0-1.469-.194,4.953,4.953,0,0,0-1.755.217,1.4,1.4,0,0,0-.864.882A6.082,6.082,0,0,0,44.9,26.6Zm9.167,1.811.683-4.095H53.536L49.772,28.36l-.17,1.026h3.292l-.241,1.438,1.011,0,.239-1.44.933,0L55,28.407Zm-1.006,0-2.128,0,2.591-2.764Zm-8.78-5.147-1.263-.96,7.2-2.78.056.025a14.775,14.775,0,0,1,2.325,1.233,9.021,9.021,0,0,1,.956.726,5.281,5.281,0,0,1,.815.943,2.069,2.069,0,0,1,.3.813Z" transform="translate(-5.559 -3.644)" fill="#b3b2b1" fill-rule="evenodd"></path></g></g></svg>